<svg width="21" height="21" viewBox="0 0 21 21" fill="none" xmlns="http://www.w3.org/2000/svg">
<path d="M20.2316 10.2362C20.2316 15.347 16.4443 19.5722 11.5243 20.2579C11.0642 20.3217 10.5936 20.355 10.1158 20.355C9.56434 20.355 9.02279 20.311 8.49541 20.226C3.67887 19.4503 0 15.2726 0 10.2362C0 4.6475 4.52947 0.116699 10.1165 0.116699C15.7036 0.116699 20.2331 4.6475 20.2331 10.2362H20.2316Z" fill="white"/>
<path d="M11.5243 8.24249V10.4469H14.2505L13.8188 13.4164H11.5243V20.258C11.0643 20.3218 10.5936 20.3551 10.1158 20.3551C9.56437 20.3551 9.02282 20.3112 8.49545 20.2261V13.4164H5.9812V10.4469H8.49545V7.7497C8.49545 6.07636 9.85145 4.71924 11.525 4.71924V4.72066C11.53 4.72066 11.5342 4.71924 11.5392 4.71924H14.2512V7.28741H12.4791C11.9524 7.28741 11.525 7.71496 11.525 8.24178L11.5243 8.24249Z" fill="#01C8BE"/>
</svg>
