<svg width="21" height="21" viewBox="0 0 21 21" fill="none" xmlns="http://www.w3.org/2000/svg">
<path d="M10.3313 0.117188H10.2853C4.71099 0.117188 0.192139 4.63737 0.192139 10.2133V10.2594C0.192139 15.8353 4.71099 20.3555 10.2853 20.3555H10.3313C15.9056 20.3555 20.4245 15.8353 20.4245 10.2594V10.2133C20.4245 4.63737 15.9056 0.117188 10.3313 0.117188Z" fill="white"/>
<path d="M13.439 4.23486H7.1786C5.44903 4.23486 4.04199 5.64232 4.04199 7.37239V13.1015C4.04199 14.8316 5.44903 16.239 7.1786 16.239H13.439C15.1686 16.239 16.5757 14.8316 16.5757 13.1015V7.37239C16.5757 5.64232 15.1686 4.23486 13.439 4.23486ZM5.14849 7.37239C5.14849 6.25281 6.05934 5.34168 7.1786 5.34168H13.439C14.5583 5.34168 15.4692 6.25281 15.4692 7.37239V13.1015C15.4692 14.2211 14.5583 15.1322 13.439 15.1322H7.1786C6.05934 15.1322 5.14849 14.2211 5.14849 13.1015V7.37239Z" fill="#01C8BE"/>
<path d="M10.3089 13.1547C11.9173 13.1547 13.2265 11.8458 13.2265 10.2363C13.2265 8.62677 11.918 7.31787 10.3089 7.31787C8.69987 7.31787 7.39136 8.62677 7.39136 10.2363C7.39136 11.8458 8.69987 13.1547 10.3089 13.1547ZM10.3089 8.4254C11.3077 8.4254 12.12 9.23797 12.12 10.237C12.12 11.2361 11.3077 12.0486 10.3089 12.0486C9.31018 12.0486 8.49785 11.2361 8.49785 10.237C8.49785 9.23797 9.31018 8.4254 10.3089 8.4254Z" fill="#01C8BE"/>
<path d="M13.4965 7.78898C13.9296 7.78898 14.2826 7.43658 14.2826 7.00264C14.2826 6.56871 13.9304 6.21631 13.4965 6.21631C13.0627 6.21631 12.7104 6.56871 12.7104 7.00264C12.7104 7.43658 13.0627 7.78898 13.4965 7.78898Z" fill="#01C8BE"/>
</svg>
