<svg width="12" height="10" viewBox="0 0 12 10" fill="none" xmlns="http://www.w3.org/2000/svg">
<path d="M0.636142 3.47251C0.245903 3.64313 0.00368413 3.94688 2.41428e-05 4.37688C-0.00249585 4.6775 0.192263 5.08126 0.582501 5.24626C0.743241 5.31439 3.00013 5.63063 3.00013 5.63063C3.00013 5.63063 3.59749 7.59749 3.81277 8.28874C3.87511 8.48874 3.91063 8.58687 4.04743 8.71749C4.27951 8.93874 4.67185 8.86938 4.84153 8.69188C5.29045 8.22313 6 7.5 6 7.5L6.29862 7.75312C6.29862 7.75312 7.62468 8.85499 8.34954 9.37373C8.77632 9.67936 9.07254 9.99812 9.55289 9.99999C9.79757 10.0012 10.19 9.87436 10.4495 9.56498C10.6209 9.36061 10.7309 9.03373 10.7734 8.74061C10.8701 8.07499 12.0048 0.877522 12 0.625648C11.9923 0.223774 11.6678 -0.00247949 11.398 2.05e-05C11.2286 0.00189549 11.0889 0.0531525 10.7783 0.151902C8.37504 0.916275 0.795321 3.40314 0.636142 3.47251ZM9.59999 1.87502C9.59999 1.87502 6.4332 4.74626 5.16775 6.06751C4.76233 6.49063 4.73371 7.21687 4.73371 7.21687L4.07959 5.03687L9.59999 1.87502Z" fill="white"/>
</svg>
