<svg width="28" height="28" viewBox="0 0 28 28" fill="none" xmlns="http://www.w3.org/2000/svg">
<path fill-rule="evenodd" clip-rule="evenodd" d="M13.0132 18.1374C13.0132 17.3911 12.7169 16.6758 12.1891 16.1489C11.6622 15.6211 10.9469 15.3249 10.2007 15.3249C8.33881 15.3249 5.50006 15.3249 3.63818 15.3249C2.89193 15.3249 2.17662 15.6211 1.64974 16.1489C1.12193 16.6758 0.825684 17.3911 0.825684 18.1374V24.6999C0.825684 25.4461 1.12193 26.1614 1.64974 26.6883C2.17662 27.2161 2.89193 27.5124 3.63818 27.5124H10.2007C10.9469 27.5124 11.6622 27.2161 12.1891 26.6883C12.7169 26.1614 13.0132 25.4461 13.0132 24.6999V18.1374ZM27.0757 18.1374C27.0757 17.3911 26.7794 16.6758 26.2516 16.1489C25.7247 15.6211 25.0094 15.3249 24.2632 15.3249C22.4013 15.3249 19.5626 15.3249 17.7007 15.3249C16.9544 15.3249 16.2391 15.6211 15.7122 16.1489C15.1844 16.6758 14.8882 17.3911 14.8882 18.1374V24.6999C14.8882 25.4461 15.1844 26.1614 15.7122 26.6883C16.2391 27.2161 16.9544 27.5124 17.7007 27.5124H24.2632C25.0094 27.5124 25.7247 27.2161 26.2516 26.6883C26.7794 26.1614 27.0757 25.4461 27.0757 24.6999V18.1374ZM11.1382 18.1374V24.6999C11.1382 24.9483 11.0397 25.1874 10.8635 25.3627C10.6882 25.5389 10.4491 25.6374 10.2007 25.6374H3.63818C3.38975 25.6374 3.15068 25.5389 2.97537 25.3627C2.79912 25.1874 2.70068 24.9483 2.70068 24.6999V18.1374C2.70068 17.8889 2.79912 17.6499 2.97537 17.4745C3.15068 17.2983 3.38975 17.1999 3.63818 17.1999H10.2007C10.4491 17.1999 10.6882 17.2983 10.8635 17.4745C11.0397 17.6499 11.1382 17.8889 11.1382 18.1374ZM25.2007 18.1374V24.6999C25.2007 24.9483 25.1022 25.1874 24.926 25.3627C24.7507 25.5389 24.5116 25.6374 24.2632 25.6374H17.7007C17.4522 25.6374 17.2132 25.5389 17.0379 25.3627C16.8616 25.1874 16.7632 24.9483 16.7632 24.6999V18.1374C16.7632 17.8889 16.8616 17.6499 17.0379 17.4745C17.2132 17.2983 17.4522 17.1999 17.7007 17.1999H24.2632C24.5116 17.1999 24.7507 17.2983 24.926 17.4745C25.1022 17.6499 25.2007 17.8889 25.2007 18.1374ZM22.9704 13.2558L26.8816 9.34454C27.9794 8.24673 27.9794 6.46548 26.8816 5.36766L22.9704 1.45642C21.8726 0.358604 20.0913 0.358604 18.9935 1.45642L15.0822 5.36766C13.9844 6.46548 13.9844 8.24673 15.0822 9.34454L18.9935 13.2558C20.0913 14.3536 21.8726 14.3536 22.9704 13.2558ZM13.0132 4.07485C13.0132 3.3286 12.7169 2.61329 12.1891 2.08641C11.6622 1.5586 10.9469 1.26235 10.2007 1.26235C8.33881 1.26235 5.50006 1.26235 3.63818 1.26235C2.89193 1.26235 2.17662 1.5586 1.64974 2.08641C1.12193 2.61329 0.825684 3.3286 0.825684 4.07485V10.6374C0.825684 11.3836 1.12193 12.0989 1.64974 12.6258C2.17662 13.1536 2.89193 13.4499 3.63818 13.4499H10.2007C10.9469 13.4499 11.6622 13.1536 12.1891 12.6258C12.7169 12.0989 13.0132 11.3836 13.0132 10.6374V4.07485ZM25.556 8.01892L21.6447 11.9302C21.2791 12.2958 20.6847 12.2958 20.3191 11.9302L16.4079 8.01892C16.0422 7.65329 16.0422 7.05891 16.4079 6.69329L20.3191 2.78204C20.6847 2.41642 21.2791 2.41642 21.6447 2.78204L25.556 6.69329C25.9216 7.05891 25.9216 7.65329 25.556 8.01892ZM11.1382 4.07485V10.6374C11.1382 10.8858 11.0397 11.1249 10.8635 11.3002C10.6882 11.4764 10.4491 11.5749 10.2007 11.5749H3.63818C3.38975 11.5749 3.15068 11.4764 2.97537 11.3002C2.79912 11.1249 2.70068 10.8858 2.70068 10.6374V4.07485C2.70068 3.82642 2.79912 3.58735 2.97537 3.41204C3.15068 3.23579 3.38975 3.13735 3.63818 3.13735H10.2007C10.4491 3.13735 10.6882 3.23579 10.8635 3.41204C11.0397 3.58735 11.1382 3.82642 11.1382 4.07485Z" fill="url(#paint0_linear_191_17)"/>
<defs>
<linearGradient id="paint0_linear_191_17" x1="5.38056" y1="17.8916" x2="29.8308" y2="17.8916" gradientUnits="userSpaceOnUse">
<stop stop-color="#00C8BD"/>
<stop offset="1" stop-color="#009ABD"/>
</linearGradient>
</defs>
</svg>
