<svg width="15" height="15" viewBox="0 0 15 15" fill="none" xmlns="http://www.w3.org/2000/svg">
<path d="M13.5766 12.4928C13.5766 12.4928 12.7275 13.3175 12.5194 13.5593C12.1805 13.917 11.7811 14.0859 11.2575 14.0859C11.2072 14.0859 11.1535 14.0859 11.1031 14.0826C10.1063 14.0197 9.18003 13.6355 8.4853 13.3076C6.5857 12.4001 4.91767 11.1117 3.53157 9.4788C2.38711 8.11753 1.6219 6.85893 1.11512 5.50759C0.802991 4.68288 0.688881 4.04033 0.739224 3.43422C0.772786 3.0467 0.923814 2.72543 1.20238 2.45052L2.34684 1.3211C2.51129 1.16874 2.68581 1.08594 2.85698 1.08594C3.06842 1.08594 3.23958 1.2118 3.34698 1.31778C3.35033 1.3211 3.35369 1.32441 3.35705 1.32772C3.56177 1.51651 3.75643 1.71193 3.96116 1.92059C4.0652 2.02657 4.1726 2.13256 4.28 2.24186L5.19624 3.14607C5.55199 3.49715 5.55199 3.82173 5.19624 4.17282C5.09891 4.26887 5.00493 4.36492 4.9076 4.45766C4.62568 4.7425 4.84715 4.52394 4.55516 4.78229C4.54845 4.78891 4.54174 4.79222 4.53838 4.79885C4.24975 5.08369 4.30345 5.3619 4.36386 5.55069C4.36721 5.56063 4.37057 5.57057 4.37393 5.5805C4.61222 6.15018 4.94783 6.68674 5.45797 7.32598L5.46133 7.32929C6.38764 8.45541 7.36429 9.33311 8.44162 10.0055C8.57922 10.0916 8.72018 10.1611 8.85443 10.2274C8.97525 10.287 9.08936 10.3433 9.18669 10.4029C9.20012 10.4095 9.21354 10.4195 9.22697 10.4261C9.34108 10.4824 9.44848 10.5089 9.55923 10.5089C9.83779 10.5089 10.0123 10.3367 10.0694 10.2804L10.7272 9.63116C10.8413 9.51855 11.0226 9.38275 11.234 9.38275C11.4421 9.38275 11.6133 9.51192 11.7173 9.62454C11.7207 9.62785 11.7207 9.62785 11.724 9.63116L13.5733 11.4561C13.919 11.794 13.5766 12.4928 13.5766 12.4928Z" stroke="#04285B" stroke-width="1.39095" stroke-linecap="round" stroke-linejoin="round"/>
</svg>
