<svg width="40" height="40" viewBox="0 0 40 40" fill="none" xmlns="http://www.w3.org/2000/svg">
<path d="M35.5742 38.2031H4.42578C3.72874 38.2025 3.06043 37.9253 2.56755 37.4325C2.07467 36.9396 1.7975 36.2713 1.79688 35.5742V4.42578C1.7975 3.72874 2.07467 3.06043 2.56755 2.56755C3.06043 2.07467 3.72874 1.7975 4.42578 1.79688H35.5742C36.2712 1.7977 36.9394 2.07494 37.4322 2.56778C37.9251 3.06061 38.2023 3.72881 38.2031 4.42578V35.5742C38.2023 36.2712 37.9251 36.9394 37.4322 37.4322C36.9394 37.9251 36.2712 38.2023 35.5742 38.2031ZM4.42578 3.04688C4.0602 3.04729 3.70971 3.1927 3.4512 3.4512C3.1927 3.70971 3.04729 4.0602 3.04688 4.42578V35.5742C3.04729 35.9398 3.1927 36.2903 3.4512 36.5488C3.70971 36.8073 4.0602 36.9527 4.42578 36.9531H35.5742C35.9398 36.9527 36.2903 36.8073 36.5488 36.5488C36.8073 36.2903 36.9527 35.9398 36.9531 35.5742V4.42578C36.9527 4.0602 36.8073 3.70971 36.5488 3.4512C36.2903 3.1927 35.9398 3.04729 35.5742 3.04688H4.42578Z" fill="#04285B"/>
<path d="M37.5781 12.3367H2.42188C2.25611 12.3367 2.09714 12.2708 1.97993 12.1536C1.86272 12.0364 1.79688 11.8774 1.79688 11.7117C1.79688 11.5459 1.86272 11.3869 1.97993 11.2697C2.09714 11.1525 2.25611 11.0867 2.42188 11.0867H37.5781C37.7439 11.0867 37.9029 11.1525 38.0201 11.2697C38.1373 11.3869 38.2031 11.5459 38.2031 11.7117C38.2031 11.8774 38.1373 12.0364 38.0201 12.1536C37.9029 12.2708 37.7439 12.3367 37.5781 12.3367Z" fill="#04285B"/>
<path d="M32.4805 9.4148C32.0161 9.4148 31.5623 9.27711 31.1762 9.01914C30.7901 8.76118 30.4892 8.39453 30.3115 7.96555C30.1338 7.53657 30.0873 7.06454 30.1779 6.60913C30.2685 6.15373 30.4921 5.73542 30.8204 5.4071C31.1488 5.07877 31.5671 4.85518 32.0225 4.76459C32.4779 4.67401 32.9499 4.7205 33.3789 4.89819C33.8079 5.07588 34.1745 5.37678 34.4325 5.76285C34.6904 6.14892 34.8281 6.60282 34.8281 7.06714C34.8275 7.68959 34.58 8.28636 34.1398 8.7265C33.6997 9.16663 33.1029 9.41418 32.4805 9.4148ZM32.4805 5.96948C32.2632 5.96949 32.0508 6.03396 31.8702 6.15475C31.6896 6.27553 31.549 6.44719 31.466 6.64799C31.383 6.84879 31.3615 7.06969 31.4042 7.28272C31.4469 7.49575 31.5518 7.69133 31.7057 7.84468C31.8596 7.99804 32.0556 8.10227 32.2687 8.14418C32.4819 8.18609 32.7027 8.16379 32.9032 8.08012C33.1037 7.99644 33.2749 7.85514 33.395 7.67412C33.5152 7.4931 33.5789 7.28049 33.5781 7.06323C33.5769 6.77286 33.4607 6.49479 33.255 6.28982C33.0493 6.08486 32.7708 5.96969 32.4805 5.96948Z" fill="#04285B"/>
<path d="M25.6953 9.41479C25.2312 9.41402 24.7776 9.27568 24.3921 9.01724C24.0065 8.75881 23.7062 8.39189 23.5291 7.96284C23.3521 7.5338 23.3061 7.06188 23.3972 6.60674C23.4882 6.1516 23.7121 5.73365 24.0406 5.40572C24.369 5.07778 24.7874 4.85458 25.2426 4.76431C25.6979 4.67404 26.1698 4.72076 26.5985 4.89856C27.0273 5.07636 27.3937 5.37727 27.6515 5.76326C27.9093 6.14924 28.0469 6.60298 28.0469 7.06714C28.0463 7.69026 27.7982 8.28763 27.3572 8.72788C26.9162 9.16812 26.3184 9.41521 25.6953 9.41479ZM25.6953 5.96948C25.4781 5.96948 25.2657 6.03396 25.0851 6.15474C24.9045 6.27553 24.7638 6.44719 24.6808 6.64799C24.5979 6.84879 24.5764 7.06969 24.619 7.28272C24.6617 7.49575 24.7666 7.69133 24.9205 7.84468C25.0744 7.99803 25.2704 8.10226 25.4836 8.14418C25.6968 8.18609 25.9176 8.16379 26.1181 8.08011C26.3186 7.99643 26.4897 7.85514 26.6099 7.67412C26.73 7.49309 26.7937 7.28049 26.793 7.06323C26.7917 6.77286 26.6756 6.49478 26.4699 6.28982C26.2642 6.08486 25.9857 5.96968 25.6953 5.96948Z" fill="#04285B"/>
<path d="M17.682 7.69214H6.58044C6.41468 7.69214 6.25571 7.62629 6.1385 7.50908C6.02129 7.39187 5.95544 7.2329 5.95544 7.06714C5.95544 6.90138 6.02129 6.74241 6.1385 6.6252C6.25571 6.50799 6.41468 6.44214 6.58044 6.44214H17.682C17.8478 6.44214 18.0067 6.50799 18.1239 6.6252C18.2412 6.74241 18.307 6.90138 18.307 7.06714C18.307 7.2329 18.2412 7.39187 18.1239 7.50908C18.0067 7.62629 17.8478 7.69214 17.682 7.69214Z" fill="#04285B"/>
<path d="M20 28.6343C18.5176 28.6345 17.0686 28.1951 15.836 27.3717C14.6034 26.5482 13.6427 25.3778 13.0754 24.0084C12.508 22.6389 12.3595 21.132 12.6486 19.6782C12.9376 18.2243 13.6514 16.8888 14.6995 15.8406C15.7476 14.7924 17.083 14.0786 18.5368 13.7893C19.9906 13.5001 21.4975 13.6485 22.867 14.2157C24.2365 14.7829 25.407 15.7435 26.2306 16.976C27.0541 18.2085 27.4937 19.6575 27.4937 21.1398C27.4923 23.1269 26.7023 25.0322 25.2973 26.4374C23.8923 27.8425 21.987 28.6327 20 28.6343ZM20 14.896C18.7648 14.8959 17.5574 15.262 16.5304 15.9481C15.5034 16.6342 14.7029 17.6095 14.2301 18.7505C13.7574 19.8916 13.6337 21.1472 13.8746 22.3586C14.1155 23.57 14.7103 24.6828 15.5836 25.5561C16.457 26.4295 17.5697 27.0242 18.7811 27.2652C19.9925 27.5061 21.2481 27.3824 22.3892 26.9096C23.5303 26.4369 24.5055 25.6364 25.1916 24.6094C25.8777 23.5823 26.2439 22.3749 26.2437 21.1398C26.2421 19.4844 25.5837 17.8972 24.4131 16.7266C23.2426 15.5561 21.6554 14.8977 20 14.896Z" fill="#04285B"/>
<path d="M29.4969 35.6438H10.5032C9.7092 35.631 8.95207 35.3067 8.39511 34.7407C7.83815 34.1747 7.526 33.4125 7.526 32.6184C7.526 31.8243 7.83815 31.0621 8.39511 30.4961C8.95207 29.9301 9.7092 29.6058 10.5032 29.593H29.4969C30.2909 29.6058 31.048 29.9301 31.605 30.4961C32.1619 31.0621 32.4741 31.8243 32.4741 32.6184C32.4741 33.4125 32.1619 34.1747 31.605 34.7407C31.048 35.3067 30.2909 35.631 29.4969 35.6438ZM10.5032 30.843C10.0388 30.8528 9.59664 31.0441 9.27164 31.376C8.94664 31.7079 8.76463 32.1539 8.76463 32.6184C8.76463 33.0829 8.94664 33.5289 9.27164 33.8608C9.59664 34.1927 10.0388 34.3841 10.5032 34.3938H29.4969C29.9613 34.3841 30.4034 34.1927 30.7284 33.8608C31.0534 33.5289 31.2355 33.0829 31.2355 32.6184C31.2355 32.1539 31.0534 31.7079 30.7284 31.376C30.4034 31.0441 29.9613 30.8528 29.4969 30.843H10.5032Z" fill="#04285B"/>
<path d="M16.9969 24.7656C16.8734 24.7655 16.7526 24.7289 16.6499 24.6602C16.5472 24.5916 16.4672 24.4941 16.4199 24.38C16.3725 24.2659 16.3601 24.1403 16.3841 24.0191C16.4081 23.898 16.4675 23.7866 16.5547 23.6992L22.561 17.6929C22.6781 17.5756 22.8371 17.5097 23.0029 17.5096C23.1687 17.5096 23.3277 17.5754 23.445 17.6925C23.5622 17.8097 23.6282 17.9687 23.6282 18.1344C23.6283 18.3002 23.5625 18.4592 23.4453 18.5765L17.4391 24.5828C17.381 24.6408 17.3121 24.6868 17.2362 24.7182C17.1603 24.7495 17.079 24.7656 16.9969 24.7656Z" fill="#04285B"/>
<path d="M23.0031 24.7657C22.921 24.7657 22.8397 24.7496 22.7639 24.7183C22.688 24.6869 22.619 24.6409 22.561 24.5829L16.5547 18.579C16.4375 18.4617 16.3718 18.3027 16.3718 18.1369C16.3719 17.9711 16.4378 17.8121 16.5551 17.695C16.6724 17.5778 16.8314 17.512 16.9972 17.5121C17.163 17.5122 17.3219 17.5781 17.4391 17.6954L23.4453 23.7016C23.5318 23.7892 23.5904 23.9003 23.614 24.0211C23.6375 24.1419 23.6249 24.2669 23.5777 24.3805C23.5305 24.4941 23.4508 24.5913 23.3486 24.6598C23.2463 24.7283 23.1262 24.7652 23.0031 24.7657Z" fill="#04285B"/>
<path d="M12.8641 33.2438H11.1406C10.9749 33.2438 10.8159 33.1779 10.6987 33.0607C10.5815 32.9435 10.5156 32.7845 10.5156 32.6188C10.5156 32.453 10.5815 32.294 10.6987 32.1768C10.8159 32.0596 10.9749 31.9938 11.1406 31.9938H12.8641C13.0298 31.9938 13.1888 32.0596 13.306 32.1768C13.4232 32.294 13.4891 32.453 13.4891 32.6188C13.4891 32.7845 13.4232 32.9435 13.306 33.0607C13.1888 33.1779 13.0298 33.2438 12.8641 33.2438Z" fill="#04285B"/>
<path d="M16.8633 33.2438H15.139C14.9733 33.2438 14.8143 33.1779 14.6971 33.0607C14.5799 32.9435 14.514 32.7845 14.514 32.6188C14.514 32.453 14.5799 32.294 14.6971 32.1768C14.8143 32.0596 14.9733 31.9938 15.139 31.9938H16.8633C17.029 31.9938 17.188 32.0596 17.3052 32.1768C17.4224 32.294 17.4883 32.453 17.4883 32.6188C17.4883 32.7845 17.4224 32.9435 17.3052 33.0607C17.188 33.1779 17.029 33.2438 16.8633 33.2438Z" fill="#04285B"/>
<path d="M20.8594 33.2438H19.1406C18.9749 33.2438 18.8159 33.1779 18.6987 33.0607C18.5815 32.9435 18.5156 32.7845 18.5156 32.6188C18.5156 32.453 18.5815 32.294 18.6987 32.1768C18.8159 32.0596 18.9749 31.9938 19.1406 31.9938H20.8594C21.0251 31.9938 21.1841 32.0596 21.3013 32.1768C21.4185 32.294 21.4844 32.453 21.4844 32.6188C21.4844 32.7845 21.4185 32.9435 21.3013 33.0607C21.1841 33.1779 21.0251 33.2438 20.8594 33.2438Z" fill="#04285B"/>
<path d="M24.8609 33.2438H23.1367C22.971 33.2438 22.812 33.1779 22.6948 33.0607C22.5776 32.9435 22.5117 32.7845 22.5117 32.6188C22.5117 32.453 22.5776 32.294 22.6948 32.1768C22.812 32.0596 22.971 31.9938 23.1367 31.9938H24.8609C25.0267 31.9938 25.1857 32.0596 25.3029 32.1768C25.4201 32.294 25.4859 32.453 25.4859 32.6188C25.4859 32.7845 25.4201 32.9435 25.3029 33.0607C25.1857 33.1779 25.0267 33.2438 24.8609 33.2438Z" fill="#04285B"/>
<path d="M28.8594 33.2438H27.136C26.9702 33.2438 26.8113 33.1779 26.694 33.0607C26.5768 32.9435 26.511 32.7845 26.511 32.6188C26.511 32.453 26.5768 32.294 26.694 32.1768C26.8113 32.0596 26.9702 31.9938 27.136 31.9938H28.8594C29.0252 31.9938 29.1842 32.0596 29.3014 32.1768C29.4186 32.294 29.4844 32.453 29.4844 32.6188C29.4844 32.7845 29.4186 32.9435 29.3014 33.0607C29.1842 33.1779 29.0252 33.2438 28.8594 33.2438Z" fill="#04285B"/>
</svg>
