<svg width="40" height="40" viewBox="0 0 40 40" fill="none" xmlns="http://www.w3.org/2000/svg">
<path fill-rule="evenodd" clip-rule="evenodd" d="M17.8554 35.1089H2.72625C2.51466 35.1089 2.34375 34.938 2.34375 34.7264V3.46697C2.34375 3.25538 2.51466 3.08447 2.72625 3.08447H27.0436C27.2552 3.08447 27.4262 3.25538 27.4262 3.46697V24.9034C27.4262 25.115 27.2552 25.2859 27.0436 25.2859C26.8321 25.2859 26.6611 25.115 26.6611 24.9034V3.85762H3.11689V34.3439H17.8554C18.067 34.3439 18.238 34.5148 18.238 34.7264C18.238 34.938 18.067 35.1089 17.8554 35.1089Z" fill="#04285B"/>
<path fill-rule="evenodd" clip-rule="evenodd" d="M5.23278 8.51274H24.5288V6.25028H5.23278V8.51274ZM24.9195 9.28588H4.85028C4.63868 9.28588 4.46777 9.11497 4.46777 8.90338V5.87591C4.46777 5.66431 4.63868 5.49341 4.85028 5.49341H24.9195C25.1311 5.49341 25.302 5.66431 25.302 5.87591V8.90338C25.3101 9.10684 25.1311 9.28588 24.9195 9.28588Z" fill="#04285B"/>
<path fill-rule="evenodd" clip-rule="evenodd" d="M5.35485 31.5932H5.96523V28.9238H5.35485V31.5932ZM6.34773 32.3582H4.97235C4.76075 32.3582 4.58984 32.1873 4.58984 31.9757V28.5331C4.58984 28.3215 4.76075 28.1506 4.97235 28.1506H6.34773C6.55932 28.1506 6.73023 28.3215 6.73023 28.5331V31.9757C6.73023 32.1873 6.55932 32.3582 6.34773 32.3582Z" fill="#04285B"/>
<path fill-rule="evenodd" clip-rule="evenodd" d="M8.26045 31.5931H8.87082V26.5229H8.26045V31.5931ZM9.24519 32.3581H7.86981C7.65821 32.3581 7.4873 32.1872 7.4873 31.9756V26.1323C7.4873 25.9207 7.65821 25.7498 7.86981 25.7498H9.24519C9.45679 25.7498 9.62769 25.9207 9.62769 26.1323V31.9756C9.63583 32.1872 9.46492 32.3581 9.24519 32.3581Z" fill="#04285B"/>
<path fill-rule="evenodd" clip-rule="evenodd" d="M11.3448 31.5932H11.9552V27.5647H11.3448V31.5932ZM12.3377 32.3582H10.9623C10.7507 32.3582 10.5798 32.1873 10.5798 31.9757V27.1822C10.5798 26.9706 10.7507 26.7997 10.9623 26.7997H12.3377C12.5493 26.7997 12.7202 26.9706 12.7202 27.1822V31.9757C12.7202 32.1873 12.5493 32.3582 12.3377 32.3582Z" fill="#04285B"/>
<path fill-rule="evenodd" clip-rule="evenodd" d="M14.4293 31.5931H15.0397V25.3917H14.4293V31.5931ZM15.4222 32.3581H14.0468C13.8352 32.3581 13.6643 32.1872 13.6643 31.9756V25.0092C13.6643 24.7976 13.8352 24.6267 14.0468 24.6267H15.4222C15.6338 24.6267 15.8047 24.7976 15.8047 25.0092V31.9756C15.8047 32.1872 15.6338 32.3581 15.4222 32.3581Z" fill="#04285B"/>
<path fill-rule="evenodd" clip-rule="evenodd" d="M12.3051 24.35C12.183 24.35 12.0609 24.2931 11.9877 24.1873C11.8656 24.0164 11.9063 23.7722 12.0854 23.6501L13.8514 22.405C14.0223 22.2829 14.2664 22.3236 14.3885 22.4945C14.5106 22.6654 14.4699 22.9095 14.299 23.0316L12.533 24.2768C12.4597 24.3338 12.3783 24.35 12.3051 24.35ZM10.8809 24.5616C10.8402 24.5616 10.7995 24.5535 10.7588 24.5453L9.19624 24.0082C8.99278 23.9431 8.88698 23.7234 8.95209 23.5199C9.0172 23.3165 9.23693 23.2107 9.44039 23.2758L10.9948 23.8048C11.1983 23.8699 11.3041 24.0896 11.239 24.2931C11.1901 24.4558 11.0436 24.5616 10.8809 24.5616ZM6.24202 26.0021C6.14436 26.0021 6.03856 25.9614 5.96532 25.88C5.81883 25.7254 5.81883 25.4813 5.97345 25.3348L7.71506 23.6583C7.86969 23.5118 8.11384 23.5118 8.26033 23.6664C8.40682 23.821 8.40682 24.0652 8.25219 24.2117L6.51059 25.8882C6.4292 25.9696 6.33154 26.0021 6.24202 26.0021Z" fill="#04285B"/>
<path fill-rule="evenodd" clip-rule="evenodd" d="M5.65597 25.7579C5.41996 25.7579 5.23278 25.9451 5.23278 26.1811C5.23278 26.4171 5.41996 26.6043 5.65597 26.6043C5.89198 26.6043 6.07917 26.4171 6.07917 26.1811C6.07917 25.9451 5.89198 25.7579 5.65597 25.7579ZM5.65597 27.3693C4.99677 27.3693 4.46777 26.8322 4.46777 26.1811C4.46777 25.5219 5.0049 24.9929 5.65597 24.9929C6.31518 24.9929 6.84417 25.5301 6.84417 26.1811C6.85231 26.8322 6.31518 27.3693 5.65597 27.3693Z" fill="#04285B"/>
<path fill-rule="evenodd" clip-rule="evenodd" d="M8.56149 22.9664C8.32548 22.9664 8.1383 23.1536 8.1383 23.3896C8.1383 23.6256 8.32548 23.8128 8.56149 23.8128C8.7975 23.8128 8.98469 23.6256 8.98469 23.3896C8.98469 23.1536 8.78936 22.9664 8.56149 22.9664ZM8.56149 24.5778C7.90228 24.5778 7.37329 24.0407 7.37329 23.3896C7.37329 22.7304 7.91042 22.2014 8.56149 22.2014C9.2207 22.2014 9.74969 22.7385 9.74969 23.3896C9.74969 24.0407 9.2207 24.5778 8.56149 24.5778Z" fill="#04285B"/>
<path fill-rule="evenodd" clip-rule="evenodd" d="M11.646 24.0082C11.41 24.0082 11.2228 24.1954 11.2228 24.4314C11.2228 24.6674 11.41 24.8546 11.646 24.8546C11.882 24.8546 12.0692 24.6674 12.0692 24.4314C12.0692 24.1954 11.8738 24.0082 11.646 24.0082ZM11.646 25.6196C10.9868 25.6196 10.4578 25.0824 10.4578 24.4314C10.4578 23.7722 10.9949 23.2432 11.646 23.2432C12.3052 23.2432 12.8342 23.7803 12.8342 24.4314C12.8342 25.0906 12.3052 25.6196 11.646 25.6196Z" fill="#04285B"/>
<path fill-rule="evenodd" clip-rule="evenodd" d="M14.7303 21.8352C14.4943 21.8352 14.3071 22.0224 14.3071 22.2584C14.3071 22.4944 14.4943 22.6816 14.7303 22.6816C14.9663 22.6816 15.1535 22.4944 15.1535 22.2584C15.1535 22.0306 14.9663 21.8352 14.7303 21.8352ZM14.7303 23.4548C14.0711 23.4548 13.5339 22.9176 13.5339 22.2666C13.5339 21.6074 14.0711 21.0784 14.7303 21.0784C15.3895 21.0784 15.9185 21.6155 15.9185 22.2666C15.9266 22.9176 15.3895 23.4548 14.7303 23.4548Z" fill="#04285B"/>
<path fill-rule="evenodd" clip-rule="evenodd" d="M21.6479 25.3266C21.4363 25.3266 21.2654 25.1557 21.2654 24.9441V20.1181C21.2654 19.9065 21.4363 19.7356 21.6479 19.7356C21.8595 19.7356 22.0304 19.9065 22.0304 20.1181V24.9441C22.0385 25.1557 21.8676 25.3266 21.6479 25.3266Z" fill="#04285B"/>
<path fill-rule="evenodd" clip-rule="evenodd" d="M21.5828 24.6999C20.948 24.6999 20.3784 24.4476 20.0772 24.0407C19.9552 23.8698 19.9877 23.6257 20.1586 23.5036C20.3295 23.3815 20.5737 23.4141 20.6957 23.585C20.8178 23.7559 21.1434 23.9268 21.5747 23.9268C22.12 23.9268 22.5187 23.6582 22.5187 23.4141C22.5187 23.1943 22.1851 22.942 21.6886 22.9095C20.6469 22.8362 19.9958 22.3479 19.9958 21.6236C19.9958 20.9075 20.7527 20.3378 21.713 20.3378C22.3478 20.3378 22.9175 20.5901 23.2186 20.997C23.3407 21.1679 23.3082 21.412 23.1373 21.5341C22.9663 21.6562 22.7222 21.6236 22.6001 21.4527C22.478 21.2818 22.1525 21.1109 21.7212 21.1109C21.1759 21.1109 20.7771 21.3795 20.7771 21.6236C20.7771 21.9492 21.3061 22.1038 21.7537 22.1363C22.6408 22.2015 23.3 22.7467 23.3 23.4141C23.3 24.1384 22.5432 24.6999 21.5828 24.6999Z" fill="#04285B"/>
<path fill-rule="evenodd" clip-rule="evenodd" d="M21.6479 19.4018C19.9308 19.4018 18.5228 20.8016 18.5228 22.5188C18.5228 24.236 19.9226 25.6358 21.6398 25.6358C23.357 25.6358 24.7568 24.236 24.7568 22.5188C24.7731 20.8016 23.3733 19.4018 21.6479 19.4018ZM21.6479 26.4171C19.4994 26.4171 17.7578 24.6674 17.7578 22.527C17.7578 20.3784 19.5076 18.6368 21.6479 18.6368C23.7965 18.6368 25.5381 20.3866 25.5381 22.527C25.5462 24.6755 23.7965 26.4171 21.6479 26.4171Z" fill="#04285B"/>
<path fill-rule="evenodd" clip-rule="evenodd" d="M18.6694 28.5982C18.0021 28.5982 17.4568 28.0773 17.4568 27.4425V26.8077C17.4568 26.173 18.0021 25.6521 18.6694 25.6521H25.7416C25.9532 25.6521 26.1241 25.823 26.1241 26.0346C26.1241 26.2462 25.9532 26.4171 25.7416 26.4171H18.6694C18.4334 26.4171 18.2299 26.5961 18.2299 26.7996V27.4344C18.2299 27.646 18.4334 27.8169 18.6694 27.8169C18.881 27.8169 19.0519 27.9878 19.0519 28.1994C19.0519 28.4191 18.881 28.5982 18.6694 28.5982Z" fill="#04285B"/>
<path fill-rule="evenodd" clip-rule="evenodd" d="M25.7334 30.7711H17.9125C17.2777 30.7711 16.7568 30.2503 16.7568 29.6155V28.9725C16.7568 28.3378 17.2777 27.8169 17.9125 27.8169H25.7334C25.945 27.8169 26.1159 27.9878 26.1159 28.1994C26.1159 28.411 25.945 28.5819 25.7334 28.5819H17.9125C17.7009 28.5819 17.53 28.7528 17.53 28.9644V29.6073C17.53 29.8189 17.7009 29.9898 17.9125 29.9898H25.7334C25.945 29.9898 26.1159 30.1607 26.1159 30.3723C26.1241 30.6002 25.945 30.7711 25.7334 30.7711Z" fill="#04285B"/>
<path fill-rule="evenodd" clip-rule="evenodd" d="M18.5228 32.9522C17.888 32.9522 17.3672 32.4313 17.3672 31.7965V31.1617C17.3672 30.527 17.888 30.0061 18.5228 30.0061C18.7344 30.0061 18.9053 30.177 18.9053 30.3886C18.9053 30.6002 18.7344 30.7711 18.5228 30.7711C18.3112 30.7711 18.1403 30.942 18.1403 31.1536V31.7884C18.1403 32 18.3112 32.1709 18.5228 32.1709C18.7344 32.1709 18.9053 32.3418 18.9053 32.5534C18.9135 32.7813 18.7426 32.9522 18.5228 32.9522Z" fill="#04285B"/>
<path fill-rule="evenodd" clip-rule="evenodd" d="M25.7334 35.1252H17.8473C17.2125 35.1252 16.6917 34.6043 16.6917 33.9695V33.3347C16.6917 32.6999 17.2125 32.1791 17.8473 32.1791H25.7334C25.945 32.1791 26.1159 32.35 26.1159 32.5616C26.1159 32.7732 25.945 32.9441 25.7334 32.9441H17.8473C17.6357 32.9441 17.4648 33.115 17.4648 33.3266V33.9614C17.4648 34.173 17.6357 34.3439 17.8473 34.3439H25.7334C25.945 34.3439 26.1159 34.5148 26.1159 34.7264C26.124 34.9543 25.945 35.1252 25.7334 35.1252Z" fill="#04285B"/>
<path fill-rule="evenodd" clip-rule="evenodd" d="M29.2817 24.9604C27.3529 24.9604 26.124 25.5951 26.124 26.0346C26.124 26.4741 27.3529 27.1089 29.2817 27.1089C31.2104 27.1089 32.4393 26.4741 32.4393 26.0346C32.4312 25.5951 31.2023 24.9604 29.2817 24.9604ZM29.2817 27.8739C27.3773 27.8739 25.3508 27.231 25.3508 26.0265C25.3508 24.8301 27.3773 24.1791 29.2817 24.1791C31.186 24.1791 33.2125 24.822 33.2125 26.0265C33.2043 27.231 31.1779 27.8739 29.2817 27.8739Z" fill="#04285B"/>
<path fill-rule="evenodd" clip-rule="evenodd" d="M29.2817 30.7956C27.3773 30.7956 25.3508 30.1527 25.3508 28.9482C25.3508 28.7366 25.5217 28.5657 25.7333 28.5657C25.9449 28.5657 26.1158 28.7366 26.1158 28.9482C26.1158 29.3876 27.3447 30.0224 29.2735 30.0224C29.6479 30.0224 30.0141 29.998 30.3641 29.9492C30.5757 29.9166 30.771 30.0631 30.8035 30.2747C30.8361 30.4863 30.6815 30.6816 30.478 30.7061C30.0874 30.763 29.6886 30.7956 29.2817 30.7956Z" fill="#04285B"/>
<path fill-rule="evenodd" clip-rule="evenodd" d="M29.2817 33.709C27.3773 33.709 25.3508 33.0661 25.3508 31.8616C25.3508 31.65 25.5217 31.4791 25.7333 31.4791C25.9449 31.4791 26.1158 31.65 26.1158 31.8616C26.1158 32.3011 27.3447 32.9359 29.2735 32.9359C29.3956 32.9359 29.5095 32.9359 29.6316 32.9278C29.8432 32.9196 30.0222 33.0824 30.0304 33.294C30.0385 33.5056 29.8758 33.6846 29.6642 33.6928C29.5421 33.709 29.4119 33.709 29.2817 33.709Z" fill="#04285B"/>
<path fill-rule="evenodd" clip-rule="evenodd" d="M32.8218 29.2981C32.6102 29.2981 32.4393 29.1272 32.4393 28.9156V26.0346C32.4393 25.823 32.6102 25.6521 32.8218 25.6521C33.0334 25.6521 33.2043 25.823 33.2043 26.0346V28.9156C33.2043 29.1272 33.0334 29.2981 32.8218 29.2981ZM29.2817 36.6307C27.3773 36.6307 25.3508 35.9878 25.3508 34.7833V26.0346C25.3508 25.823 25.5217 25.6521 25.7333 25.6521C25.9449 25.6521 26.1158 25.823 26.1158 26.0346V34.7833C26.1158 35.2228 27.3447 35.8576 29.2735 35.8576C30.006 35.8576 30.7059 35.7599 31.2837 35.5809C31.4871 35.5158 31.7069 35.6297 31.7639 35.8332C31.829 36.0366 31.715 36.2564 31.5116 36.3133C30.8605 36.5249 30.0873 36.6307 29.2817 36.6307Z" fill="#04285B"/>
<path fill-rule="evenodd" clip-rule="evenodd" d="M33.3671 35.0519C32.7323 35.0519 32.1545 34.7752 31.8615 34.3276C31.7476 34.1485 31.7964 33.9125 31.9673 33.7904C32.1463 33.6765 32.3823 33.7253 32.5044 33.8962C32.6591 34.1241 32.9927 34.2706 33.3671 34.2706C33.8635 34.2706 34.303 33.9939 34.303 33.6765C34.303 33.3835 33.9368 33.1231 33.481 33.0824C32.4475 33.001 31.8045 32.4802 31.8045 31.7151C31.8045 30.9501 32.5533 30.3479 33.5136 30.3479C34.1484 30.3479 34.7262 30.6246 35.0192 31.0722C35.1331 31.2513 35.0843 31.4873 34.9134 31.6093C34.7343 31.7233 34.4983 31.6745 34.3762 31.5035C34.2216 31.2757 33.8879 31.1292 33.5136 31.1292C33.0171 31.1292 32.5777 31.4059 32.5777 31.7233C32.5777 32.2116 33.3183 32.3011 33.5461 32.3255C34.4251 32.3906 35.0843 32.9766 35.0843 33.6846C35.0761 34.4496 34.3274 35.0519 33.3671 35.0519Z" fill="#04285B"/>
<path fill-rule="evenodd" clip-rule="evenodd" d="M33.4404 35.7274C33.2288 35.7274 33.0579 35.5565 33.0579 35.3449V30.055C33.0579 29.8434 33.2288 29.6725 33.4404 29.6725C33.652 29.6725 33.8229 29.8434 33.8229 30.055V35.3449C33.8229 35.5565 33.652 35.7274 33.4404 35.7274Z" fill="#04285B"/>
<path fill-rule="evenodd" clip-rule="evenodd" d="M33.4404 29.2492C31.536 29.2492 29.9897 30.7955 29.9897 32.6999C29.9897 34.6043 31.536 36.1505 33.4404 36.1505C35.3447 36.1505 36.891 34.6043 36.891 32.6999C36.8829 30.7955 35.3366 29.2492 33.4404 29.2492ZM33.4404 36.9155C31.1128 36.9155 29.2166 35.0193 29.2166 32.6917C29.2166 30.3642 31.1128 28.4761 33.4404 28.4761C35.7679 28.4761 37.6642 30.3723 37.6642 32.6917C37.656 35.0274 35.7598 36.9155 33.4404 36.9155Z" fill="#04285B"/>
<path fill-rule="evenodd" clip-rule="evenodd" d="M8.61831 17.1882C7.98352 17.1882 7.40569 16.9115 7.11271 16.4639C6.99878 16.2849 7.04761 16.0489 7.21851 15.9268C7.39755 15.8128 7.63357 15.8617 7.75564 16.0326C7.91027 16.2604 8.24394 16.4069 8.61831 16.4069C9.11475 16.4069 9.55422 16.1302 9.55422 15.8128C9.55422 15.5199 9.18799 15.2594 8.73224 15.2187C7.69867 15.1374 7.05574 14.6165 7.05574 13.8515C7.05574 13.0865 7.80447 12.4843 8.7648 12.4843C9.39959 12.4843 9.97741 12.761 10.2704 13.2086C10.3843 13.3876 10.3355 13.6236 10.1646 13.7457C9.98555 13.8596 9.74954 13.8108 9.62746 13.6399C9.47283 13.412 9.13916 13.2655 8.7648 13.2655C8.26836 13.2655 7.82889 13.5422 7.82889 13.8596C7.82889 14.3479 8.56948 14.4375 8.79735 14.4619C9.67629 14.527 10.3355 15.1129 10.3355 15.821C10.3192 16.586 9.57049 17.1882 8.61831 17.1882Z" fill="#04285B"/>
<path fill-rule="evenodd" clip-rule="evenodd" d="M8.68353 17.8638C8.47193 17.8638 8.30103 17.6929 8.30103 17.4813V12.1913C8.30103 11.9797 8.47193 11.8088 8.68353 11.8088C8.89512 11.8088 9.06603 11.9797 9.06603 12.1913V17.4813C9.07417 17.6929 8.89512 17.8638 8.68353 17.8638Z" fill="#04285B"/>
<path fill-rule="evenodd" clip-rule="evenodd" d="M8.68352 11.3856C6.77915 11.3856 5.23286 12.9319 5.23286 14.8362C5.23286 16.7406 6.77915 18.2869 8.68352 18.2869C10.5879 18.2869 12.1342 16.7406 12.1342 14.8362C12.1342 12.9319 10.5879 11.3856 8.68352 11.3856ZM8.68352 19.0519C6.35595 19.0519 4.45972 17.1557 4.45972 14.8281C4.45972 12.5005 6.35595 10.6124 8.68352 10.6124C11.0111 10.6124 12.8992 12.5087 12.8992 14.8281C12.9073 17.1638 11.0111 19.0519 8.68352 19.0519Z" fill="#04285B"/>
<path fill-rule="evenodd" clip-rule="evenodd" d="M23.2105 15.2187H15.4384C15.2268 15.2187 15.0559 15.0478 15.0559 14.8362C15.0559 14.6246 15.2268 14.4537 15.4384 14.4537H23.2105C23.4221 14.4537 23.593 14.6246 23.593 14.8362C23.593 15.0478 23.4221 15.2187 23.2105 15.2187Z" fill="#04285B"/>
<path fill-rule="evenodd" clip-rule="evenodd" d="M24.9196 17.4161H15.4384C15.2268 17.4161 15.0559 17.2452 15.0559 17.0336C15.0559 16.822 15.2268 16.6511 15.4384 16.6511H24.9196C25.1312 16.6511 25.3021 16.822 25.3021 17.0336C25.3102 17.2371 25.1312 17.4161 24.9196 17.4161Z" fill="#04285B"/>
<path fill-rule="evenodd" clip-rule="evenodd" d="M24.3092 13.0295H15.4384C15.2268 13.0295 15.0559 12.8586 15.0559 12.647C15.0559 12.4354 15.2268 12.2645 15.4384 12.2645H24.3092C24.5208 12.2645 24.6917 12.4354 24.6917 12.647C24.6917 12.8586 24.5208 13.0295 24.3092 13.0295Z" fill="#04285B"/>
</svg>
