<svg width="40" height="40" viewBox="0 0 40 40" fill="none" xmlns="http://www.w3.org/2000/svg">
<g clip-path="url(#clip0_162_88)">
<path d="M36.25 6.875H31.25V4.375H35.625C35.7908 4.375 35.9497 4.30915 36.0669 4.19194C36.1842 4.07473 36.25 3.91576 36.25 3.75C36.249 2.9215 35.9194 2.12722 35.3336 1.54139C34.7478 0.955551 33.9535 0.625992 33.125 0.625H11.875C11.0465 0.625992 10.2522 0.955551 9.66639 1.54139C9.08055 2.12722 8.75099 2.9215 8.75 3.75V6.875H3.75C2.9215 6.87599 2.12722 7.20555 1.54139 7.79139C0.955551 8.37722 0.625992 9.1715 0.625 10V30C0.625992 30.8285 0.955551 31.6228 1.54139 32.2086C2.12722 32.7944 2.9215 33.124 3.75 33.125H16.25V35.625H14.375C13.8777 35.625 13.4008 35.8225 13.0492 36.1742C12.6975 36.5258 12.5 37.0027 12.5 37.5C12.5 37.9973 12.6975 38.4742 13.0492 38.8258C13.4008 39.1775 13.8777 39.375 14.375 39.375H25.625C26.1223 39.375 26.5992 39.1775 26.9508 38.8258C27.3025 38.4742 27.5 37.9973 27.5 37.5C27.5 37.0027 27.3025 36.5258 26.9508 36.1742C26.5992 35.8225 26.1223 35.625 25.625 35.625H23.75V33.125H36.25C37.0785 33.124 37.8728 32.7944 38.4586 32.2086C39.0444 31.6228 39.374 30.8285 39.375 30V10C39.374 9.1715 39.0444 8.37722 38.4586 7.79139C37.8728 7.20555 37.0785 6.87599 36.25 6.875ZM36.25 8.125C36.6364 8.1266 37.0129 8.24755 37.3279 8.4713C37.643 8.69506 37.8812 9.01068 38.01 9.375H31.25V8.125H36.25ZM34.8931 3.125H31.3569C31.486 2.75919 31.7254 2.44242 32.042 2.21837C32.3587 1.99431 32.7371 1.87399 33.125 1.87399C33.5129 1.87399 33.8913 1.99431 34.208 2.21837C34.5246 2.44242 34.764 2.75919 34.8931 3.125ZM11.875 1.875H30.6413C30.2276 2.41274 30.0023 3.07158 30 3.75V25C30 25.4973 29.8025 25.9742 29.4508 26.3258C29.0992 26.6775 28.6223 26.875 28.125 26.875C27.6277 26.875 27.1508 26.6775 26.7992 26.3258C26.4475 25.9742 26.25 25.4973 26.25 25C26.25 24.8342 26.1842 24.6753 26.0669 24.5581C25.9497 24.4408 25.7908 24.375 25.625 24.375H10V3.75C10 3.25272 10.1975 2.77581 10.5492 2.42417C10.9008 2.07254 11.3777 1.875 11.875 1.875ZM25.0625 25.625C25.1546 26.0783 25.3468 26.5054 25.625 26.875H9.375C8.98733 26.8745 8.6093 26.7541 8.29274 26.5303C7.97619 26.3066 7.73661 25.9903 7.60687 25.625H25.0625ZM3.75 8.125H8.75V9.375H1.99C2.1188 9.01068 2.35702 8.69506 2.67206 8.4713C2.98711 8.24755 3.36359 8.1266 3.75 8.125ZM26.25 37.5C26.25 37.6658 26.1842 37.8247 26.0669 37.9419C25.9497 38.0592 25.7908 38.125 25.625 38.125H14.375C14.2092 38.125 14.0503 38.0592 13.9331 37.9419C13.8158 37.8247 13.75 37.6658 13.75 37.5C13.75 37.3342 13.8158 37.1753 13.9331 37.0581C14.0503 36.9408 14.2092 36.875 14.375 36.875H25.625C25.7908 36.875 25.9497 36.9408 26.0669 37.0581C26.1842 37.1753 26.25 37.3342 26.25 37.5ZM22.5 35.625H17.5V33.125H22.5V35.625ZM36.25 31.875H3.75C3.25272 31.875 2.77581 31.6775 2.42417 31.3258C2.07254 30.9742 1.875 30.4973 1.875 30V29.375H7.5V28.125H1.875V10.625H8.75V24.375H6.875C6.70924 24.375 6.55027 24.4408 6.43306 24.5581C6.31585 24.6753 6.25 24.8342 6.25 25C6.25099 25.8285 6.58055 26.6228 7.16639 27.2086C7.75222 27.7944 8.5465 28.124 9.375 28.125H28.125C28.9535 28.124 29.7478 27.7944 30.3336 27.2086C30.9194 26.6228 31.249 25.8285 31.25 25V10.625H38.125V28.125H30.625V29.375H38.125V30C38.125 30.4973 37.9275 30.9742 37.5758 31.3258C37.2242 31.6775 36.7473 31.875 36.25 31.875Z" fill="#04285B"/>
<path d="M11.875 8.125H28.125C28.2908 8.125 28.4497 8.05915 28.5669 7.94194C28.6842 7.82473 28.75 7.66576 28.75 7.5V3.75C28.75 3.58424 28.6842 3.42527 28.5669 3.30806C28.4497 3.19085 28.2908 3.125 28.125 3.125H11.875C11.7092 3.125 11.5503 3.19085 11.4331 3.30806C11.3158 3.42527 11.25 3.58424 11.25 3.75V7.5C11.25 7.66576 11.3158 7.82473 11.4331 7.94194C11.5503 8.05915 11.7092 8.125 11.875 8.125ZM12.5 4.375H27.5V6.875H12.5V4.375Z" fill="#04285B"/>
<path d="M18.125 20H21.875C22.0408 20 22.1997 19.9341 22.3169 19.8169C22.4342 19.6997 22.5 19.5407 22.5 19.375V16.25H23.75C23.8661 16.25 23.9798 16.2177 24.0786 16.1566C24.1773 16.0956 24.2571 16.0083 24.309 15.9045C24.3609 15.8007 24.3829 15.6844 24.3725 15.5688C24.3621 15.4532 24.3196 15.3428 24.25 15.25L22.375 12.75C20.2331 9.89372 20.2338 9.88685 19.8025 10.0325C19.6817 10.0721 19.5761 10.1481 19.5 10.25L15.75 15.25C15.6804 15.3428 15.6379 15.4532 15.6275 15.5688C15.6171 15.6844 15.6391 15.8007 15.691 15.9045C15.7429 16.0083 15.8227 16.0956 15.9214 16.1566C16.0202 16.2177 16.1339 16.25 16.25 16.25H17.5V19.375C17.5 19.5407 17.5658 19.6997 17.6831 19.8169C17.8003 19.9341 17.9592 20 18.125 20ZM17.5 15L20 11.6656L22.5 15H21.875C21.7092 15 21.5503 15.0658 21.4331 15.183C21.3158 15.3002 21.25 15.4592 21.25 15.625V18.75H18.75V15.625C18.75 15.4592 18.6842 15.3002 18.5669 15.183C18.4497 15.0658 18.2908 15 18.125 15H17.5Z" fill="#04285B"/>
<path d="M25.625 21.25H14.375V18.75H13.125V21.875C13.125 22.0408 13.1908 22.1997 13.3081 22.3169C13.4253 22.4342 13.5842 22.5 13.75 22.5H26.25C26.4158 22.5 26.5747 22.4342 26.6919 22.3169C26.8092 22.1997 26.875 22.0408 26.875 21.875V18.75H25.625V21.25Z" fill="#04285B"/>
</g>
<defs>
<clipPath id="clip0_162_88">
<rect width="40" height="40" fill="white"/>
</clipPath>
</defs>
</svg>
