<svg width="40" height="40" viewBox="0 0 40 40" fill="none" xmlns="http://www.w3.org/2000/svg">
<g clip-path="url(#clip0_162_93)">
<path d="M23.9071 25.2068C24.4022 25.2068 24.8652 25.0117 25.2109 24.6573L28.2821 21.5085C28.983 20.7898 28.9685 19.6348 28.2497 18.9338C27.5308 18.2329 26.3756 18.2474 25.6747 18.9661L23.873 20.8132L23.5574 20.5063C22.8375 19.8066 21.6824 19.8226 20.9823 20.5424C20.2825 21.2621 20.2986 22.4171 21.0185 23.1171L22.6377 24.6914C22.9795 25.0238 23.4304 25.2068 23.9071 25.2068ZM21.8243 21.361C22.0731 21.1052 22.4835 21.0999 22.7389 21.3482L23.4747 22.0638C23.7069 22.2896 24.0782 22.2846 24.3044 22.0528L26.5154 19.786C26.7644 19.5307 27.1747 19.5257 27.4298 19.7745C27.6851 20.0235 27.6902 20.4336 27.4414 20.6889L24.3702 23.8375C24.1329 24.0914 23.7005 24.0967 23.4564 23.8497L21.8372 22.2753C21.5816 22.0267 21.5758 21.6165 21.8243 21.361Z" fill="#04285B"/>
<path d="M19.3683 25.6065C19.173 25.3477 18.805 25.2961 18.5459 25.4914C18.287 25.6867 18.2356 26.0548 18.4308 26.3137C18.6447 26.597 18.8812 26.8688 19.1337 27.1213C20.5774 28.5648 22.4969 29.3597 24.5385 29.3597C26.5801 29.3597 28.4995 28.5648 29.9432 27.1213C31.3869 25.6778 32.1819 23.7586 32.1819 21.7173C32.1819 19.6759 31.3869 17.7567 29.9432 16.3133C26.963 13.3335 22.114 13.3336 19.1337 16.3133C17.1019 18.3448 16.383 21.3083 17.2574 24.0473C17.356 24.3563 17.6866 24.5266 17.9953 24.4281C18.3042 24.3295 18.4748 23.9991 18.3761 23.6903C17.6358 21.3717 18.2444 18.8631 19.9642 17.1436C22.4864 14.6216 26.5906 14.6216 29.1128 17.1436C30.3347 18.3653 31.0076 19.9896 31.0076 21.7173C31.0076 23.4451 30.3347 25.0694 29.1128 26.2911C27.891 27.5127 26.2665 28.1856 24.5385 28.1856C22.8106 28.1856 21.186 27.5128 19.9641 26.2911C19.7499 26.0767 19.5494 25.8465 19.3683 25.6065Z" fill="#04285B"/>
<path d="M39.1922 32.443L35.4879 28.7392C35.2585 28.51 34.8868 28.5099 34.6574 28.7392L34.6348 28.7619L33.2092 27.3366C34.1675 25.8592 34.7385 24.1523 34.8508 22.3708C34.8712 22.0472 34.6253 21.7684 34.3017 21.7479C33.9784 21.7282 33.6993 21.9734 33.6788 22.2969C33.5385 24.521 32.5924 26.6148 31.0145 28.1923C29.2314 29.9753 26.8898 30.8678 24.5474 30.8701C24.5445 30.87 24.5416 30.8696 24.5385 30.8696H24.4919C22.1622 30.8579 19.8361 29.9657 18.0625 28.1923C16.3327 26.4628 15.38 24.1632 15.38 21.7172C15.38 19.2712 16.3327 16.9716 18.0625 15.242C21.6334 11.6716 27.4437 11.6716 31.0145 15.242C32.3445 16.5719 33.2222 18.2493 33.5528 20.0931C33.61 20.4123 33.9153 20.6243 34.2343 20.5674C34.5535 20.5102 34.7659 20.2052 34.7087 19.8859C34.3356 17.8049 33.3453 15.912 31.8449 14.4117C31.1015 13.6684 30.2718 13.0627 29.388 12.5937V7.86195C29.3875 7.70742 29.3251 7.55617 29.216 7.4468L21.9403 0.171953C21.8308 0.0630469 21.6796 0.000390625 21.5249 0H1.7615C0.790251 0 1.70898e-05 0.790078 1.70898e-05 1.76125V6.69586C1.70898e-05 7.02008 0.26283 7.28297 0.587205 7.28297C0.911501 7.28297 1.17439 7.02016 1.17439 6.69586V1.76125C1.17439 1.4375 1.43775 1.17414 1.76158 1.17414H20.938V6.68781C20.938 7.65898 21.7282 8.44906 22.6995 8.44906H28.2138V12.062C27.0682 11.6279 25.8604 11.4049 24.6506 11.3919C24.6449 11.3911 24.6392 11.3899 24.6332 11.3899H11.5238C11.1995 11.3899 10.9367 11.6528 10.9367 11.977C10.9367 12.3012 11.1995 12.5641 11.5238 12.5641H19.7446C18.907 13.0021 18.1175 13.5627 17.4025 14.2458H11.5238C11.1995 14.2458 10.9367 14.5087 10.9367 14.8329C10.9367 15.1571 11.1995 15.42 11.5238 15.42H16.3457C15.3873 16.6615 14.7323 18.0913 14.4188 19.6177H11.5239C11.1996 19.6177 10.9367 19.8805 10.9367 20.2048C10.9367 20.529 11.1996 20.7919 11.5239 20.7919H14.2473C14.2203 21.0979 14.206 21.4065 14.206 21.7173C14.206 21.9723 14.2153 22.2259 14.2335 22.4777H11.524C11.1997 22.4777 10.9368 22.7406 10.9368 23.0648C10.9368 23.3891 11.1997 23.652 11.524 23.652H14.3865C14.686 25.2411 15.3536 26.7302 16.3475 28.0168H11.524C11.1997 28.0168 10.9368 28.2796 10.9368 28.6039C10.9368 28.9282 11.1997 29.191 11.524 29.191H17.4049C18.1188 29.8728 18.9071 30.4325 19.7432 30.8699H11.5237C11.1994 30.8699 10.9365 31.1328 10.9365 31.457C10.9365 31.7812 11.1994 32.0441 11.5237 32.0441H24.5385C25.7856 32.044 27.0327 31.82 28.2137 31.3726V38.2391C28.2137 38.5627 27.9503 38.8262 27.6265 38.8262H1.7615C1.43775 38.8262 1.17431 38.5628 1.17431 38.2391V9.04453C1.17431 8.72031 0.911423 8.45742 0.587126 8.45742C0.26283 8.45742 -6.10352e-05 8.72023 -6.10352e-05 9.04453V38.2391C1.70898e-05 39.2099 0.790251 40 1.7615 40H27.6266C28.5978 40 29.3881 39.2099 29.3881 38.2387V30.8405C29.6501 30.7015 29.9073 30.5502 30.1589 30.3871L31.5842 31.8121C31.3375 32.0274 31.3243 32.4377 31.5614 32.6651L35.2658 36.369C36.2992 37.4459 38.1588 37.4459 39.1921 36.369C40.2693 35.3357 40.2692 33.4762 39.1922 32.443ZM22.6994 7.27492C22.3756 7.27492 22.1122 7.01156 22.1122 6.68781V2.00445L27.3834 7.27492H22.6994ZM31.1167 29.6842C31.3673 29.4771 31.6106 29.257 31.8449 29.0227C32.0779 28.7897 32.2984 28.5465 32.5065 28.2945L33.8043 29.5921L32.4145 30.9817L31.1167 29.6842ZM38.3618 35.5387C37.7656 36.1602 36.6925 36.16 36.0962 35.5387L32.807 32.2499L35.0727 29.9845L38.3619 33.2733C38.9833 33.8696 38.9834 34.9424 38.3618 35.5387Z" fill="#04285B"/>
<path d="M5.32844 16.0002H7.89718C8.6214 16.0002 9.21062 15.4112 9.21062 14.6871V12.1187C9.21062 11.3945 8.62148 10.8055 7.89718 10.8055H5.32844C4.60429 10.8055 4.01508 11.3945 4.01508 12.1187V14.6871C4.01508 15.4112 4.60429 16.0002 5.32844 16.0002ZM5.18945 12.1187C5.18945 12.042 5.25187 11.9797 5.32844 11.9797H7.89718C7.9739 11.9797 8.03625 12.042 8.03625 12.1187V14.6871C8.03625 14.7638 7.97383 14.8261 7.89718 14.8261H5.32844C5.25179 14.8261 5.18945 14.7638 5.18945 14.6871V12.1187Z" fill="#04285B"/>
<path d="M4.01508 22.9189C4.01508 23.643 4.60422 24.232 5.32844 24.232H7.89718C8.6214 24.232 9.21062 23.643 9.21062 22.9189V20.3505C9.21062 19.6264 8.62148 19.0374 7.89718 19.0374H5.32844C4.60429 19.0374 4.01508 19.6264 4.01508 20.3505V22.9189ZM5.18945 20.3505C5.18945 20.2738 5.25187 20.2115 5.32844 20.2115H7.89718C7.9739 20.2115 8.03625 20.2738 8.03625 20.3505V22.9189C8.03625 22.9956 7.97383 23.0579 7.89718 23.0579H5.32844C5.25179 23.0579 5.18945 22.9956 5.18945 22.9189V20.3505Z" fill="#04285B"/>
<path d="M4.01508 31.3179C4.01508 32.042 4.60422 32.631 5.32844 32.631H7.89718C8.6214 32.631 9.21062 32.042 9.21062 31.3179V28.7495C9.21062 28.0253 8.62148 27.4363 7.89718 27.4363H5.32844C4.60429 27.4363 4.01508 28.0253 4.01508 28.7495V31.3179ZM5.18945 28.7495C5.18945 28.6728 5.25187 28.6105 5.32844 28.6105H7.89718C7.9739 28.6105 8.03625 28.6728 8.03625 28.7495V31.3179C8.03625 31.3946 7.97383 31.4569 7.89718 31.4569H5.32844C5.25179 31.4569 5.18945 31.3946 5.18945 31.3179V28.7495Z" fill="#04285B"/>
</g>
<defs>
<clipPath id="clip0_162_93">
<rect width="40" height="40" fill="white"/>
</clipPath>
</defs>
</svg>
