<svg width="40" height="40" viewBox="0 0 40 40" fill="none" xmlns="http://www.w3.org/2000/svg">
<path d="M34.375 1.875H26.875V1.25C26.875 1.08424 26.8092 0.925268 26.6919 0.808058C26.5747 0.690848 26.4158 0.625 26.25 0.625H13.75C13.5842 0.625 13.4253 0.690848 13.3081 0.808058C13.1908 0.925268 13.125 1.08424 13.125 1.25V1.875H5.625C5.45924 1.875 5.30027 1.94085 5.18306 2.05806C5.06585 2.17527 5 2.33424 5 2.5V38.75C5 38.9158 5.06585 39.0747 5.18306 39.1919C5.30027 39.3092 5.45924 39.375 5.625 39.375H34.375C34.5408 39.375 34.6997 39.3092 34.8169 39.1919C34.9342 39.0747 35 38.9158 35 38.75V2.5C35 2.33424 34.9342 2.17527 34.8169 2.05806C34.6997 1.94085 34.5408 1.875 34.375 1.875ZM14.375 1.875H25.625V5.625H14.375V1.875ZM26.25 6.875C26.4158 6.875 26.5747 6.80915 26.6919 6.69194C26.8092 6.57473 26.875 6.41576 26.875 6.25V5.625H31.25V35.625H8.75V5.625H13.125V6.25C13.125 6.41576 13.1908 6.57473 13.3081 6.69194C13.4253 6.80915 13.5842 6.875 13.75 6.875H26.25ZM33.75 38.125H6.25V3.125H13.125V4.375H8.125C7.95924 4.375 7.80027 4.44085 7.68306 4.55806C7.56585 4.67527 7.5 4.83424 7.5 5V36.25C7.5 36.4158 7.56585 36.5747 7.68306 36.6919C7.80027 36.8092 7.95924 36.875 8.125 36.875H31.875C32.0408 36.875 32.1997 36.8092 32.3169 36.6919C32.4342 36.5747 32.5 36.4158 32.5 36.25V5C32.5 4.83424 32.4342 4.67527 32.3169 4.55806C32.1997 4.44085 32.0408 4.375 31.875 4.375H26.875V3.125H33.75V38.125Z" fill="#04285B"/>
<path d="M19.6688 21.155C19.7681 21.2171 19.8829 21.25 20.0001 21.25C20.1172 21.25 20.232 21.2171 20.3313 21.155C21.9554 20.1469 23.2944 18.7401 24.221 17.0682C25.1476 15.3964 25.631 13.5152 25.6251 11.6037V10.625C25.6251 10.4592 25.5592 10.3003 25.442 10.183C25.3248 10.0658 25.1658 9.99999 25.0001 9.99999H24.5269C23.768 10.0021 23.0161 9.85367 22.3149 9.56326C21.6138 9.27285 20.9771 8.84623 20.4419 8.30811C20.3247 8.19094 20.1658 8.12512 20.0001 8.12512C19.8343 8.12512 19.6754 8.19094 19.5582 8.30811C19.023 8.84623 18.3864 9.27285 17.6852 9.56326C16.984 9.85367 16.2321 10.0021 15.4732 9.99999H15.0001C14.8343 9.99999 14.6753 10.0658 14.5581 10.183C14.4409 10.3003 14.3751 10.4592 14.3751 10.625V11.6037C14.3691 13.5152 14.8525 15.3964 15.7791 17.0682C16.7057 18.7401 18.0448 20.1469 19.6688 21.155ZM15.6251 11.25C17.23 11.2201 18.7753 10.637 20.0001 9.59936C21.2248 10.637 22.7701 11.2201 24.3751 11.25V11.605C24.3804 13.2373 23.9842 14.8459 23.2212 16.289C22.4583 17.7321 21.3521 18.9653 20.0001 19.88C18.6481 18.9653 17.5418 17.7321 16.7789 16.289C16.0159 14.8459 15.6197 13.2373 15.6251 11.605V11.25Z" fill="#04285B"/>
<path d="M19.375 16.875H19.3962C19.5025 16.8716 19.6062 16.8411 19.6974 16.7864C19.7886 16.7317 19.8644 16.6546 19.9175 16.5625L22.4175 12.1875L21.3325 11.5625L19.3325 15.0594L18.645 14.0256L17.605 14.7194L18.855 16.5944C18.9118 16.6804 18.989 16.7511 19.0797 16.8C19.1705 16.849 19.2719 16.8747 19.375 16.875Z" fill="#04285B"/>
<path d="M15.625 3.125H16.875V4.375H15.625V3.125Z" fill="#04285B"/>
<path d="M23.125 3.125H24.375V4.375H23.125V3.125Z" fill="#04285B"/>
<path d="M14.1163 22.5H10.625C10.4592 22.5 10.3003 22.5658 10.1831 22.683C10.0658 22.8002 10 22.9592 10 23.125V26.875C10 27.0407 10.0658 27.1997 10.1831 27.3169C10.3003 27.4341 10.4592 27.5 10.625 27.5H14.375C14.5408 27.5 14.6997 27.4341 14.8169 27.3169C14.9342 27.1997 15 27.0407 15 26.875V23.3837L16.6919 21.6919L15.8081 20.8081L14.1163 22.5ZM12.8663 23.75L11.25 25.3662V23.75H12.8663ZM13.75 26.25H12.1337L13.75 24.6337V26.25Z" fill="#04285B"/>
<path d="M15.8081 27.0581L14.1163 28.75H10.625C10.4592 28.75 10.3003 28.8158 10.1831 28.933C10.0658 29.0502 10 29.2092 10 29.375V33.125C10 33.2907 10.0658 33.4497 10.1831 33.5669C10.3003 33.6841 10.4592 33.75 10.625 33.75H14.375C14.5408 33.75 14.6997 33.6841 14.8169 33.5669C14.9342 33.4497 15 33.2907 15 33.125V29.6337L16.6919 27.9419L15.8081 27.0581ZM12.8663 30L11.25 31.6162V30H12.8663ZM13.75 32.5H12.1337L13.75 30.8837V32.5Z" fill="#04285B"/>
<path d="M16.875 23.125H30V24.375H16.875V23.125Z" fill="#04285B"/>
<path d="M16.875 25.625H27.5V26.875H16.875V25.625Z" fill="#04285B"/>
<path d="M28.75 25.625H30V26.875H28.75V25.625Z" fill="#04285B"/>
<path d="M16.875 29.375H30V30.625H16.875V29.375Z" fill="#04285B"/>
<path d="M16.875 31.875H27.5V33.125H16.875V31.875Z" fill="#04285B"/>
<path d="M28.75 31.875H30V33.125H28.75V31.875Z" fill="#04285B"/>
</svg>
