<svg width="40" height="40" viewBox="0 0 40 40" fill="none" xmlns="http://www.w3.org/2000/svg">
<path d="M35.8671 2.32141H4.13281C2.19859 2.32141 0.625 3.895 0.625 5.82922V25.6619C0.625 27.5961 2.19859 29.1697 4.13281 29.1697H13.4821V32.5H9.71898C8.01875 32.5 6.63555 33.6616 6.63555 35.0893V37.0537C6.63555 37.3988 6.91539 37.6787 7.26055 37.6787H32.7394C33.0845 37.6787 33.3644 37.3988 33.3644 37.0537V35.0893C33.3644 33.6616 31.9811 32.5 30.2809 32.5H26.5178V29.1698H35.8671C37.8013 29.1698 39.3749 27.5963 39.3749 25.662V5.8293C39.375 3.895 37.8014 2.32141 35.8671 2.32141ZM32.1145 35.0892V36.4286H7.88555V35.0892C7.88555 34.3633 8.72516 33.7499 9.71898 33.7499H30.2809C31.2748 33.75 32.1145 34.3633 32.1145 35.0892ZM25.2678 32.5H14.7322V29.1698H25.2679L25.2678 32.5ZM38.125 25.662C38.125 26.907 37.1121 27.9198 35.8672 27.9198H4.13281C2.88781 27.9198 1.875 26.9069 1.875 25.662V5.8293C1.875 4.5843 2.88781 3.57149 4.13281 3.57149H35.8671C37.1121 3.57149 38.1249 4.58438 38.1249 5.8293V25.662H38.125ZM35.9395 4.73211H4.06047C3.49539 4.73211 3.0357 5.19188 3.0357 5.75696V23.6887C3.0357 24.0338 3.31555 24.3137 3.6607 24.3137H36.3392C36.6844 24.3137 36.9642 24.0338 36.9642 23.6887V5.75696C36.9642 5.19188 36.5045 4.73211 35.9395 4.73211ZM35.7142 23.0637H4.2857V5.98211H35.7142V23.0637ZM6.1507 17.8676C6.34484 17.6734 6.56117 17.5305 6.78977 17.4269L9.87109 20.5082C9.7675 20.7368 9.62453 20.9531 9.43039 21.1473C9.18633 21.3913 9.18633 21.787 9.43039 22.0311C9.55242 22.1531 9.71234 22.2141 9.87234 22.2141C10.0323 22.2141 10.1923 22.1531 10.3143 22.0311C11.5701 20.7753 11.4398 19.0509 11.1863 17.9184C11.5889 18.0088 12.0655 18.0837 12.5675 18.0858C12.6365 18.0898 12.7055 18.0918 12.7742 18.0918C13.718 18.0918 14.6276 17.7177 15.2987 17.0466C16.0185 16.3267 16.3966 15.3323 16.3378 14.3155C16.3357 13.8133 16.2608 13.3366 16.1705 12.9339C16.5794 13.0256 17.0648 13.1012 17.5783 13.1012C18.4867 13.1012 19.4808 12.8646 20.2831 12.0622C20.5273 11.8181 20.5273 11.4224 20.2831 11.1784C20.0391 10.9343 19.6434 10.9343 19.3993 11.1784C19.2052 11.3725 18.9888 11.5155 18.7603 11.6191L15.6789 8.53766C15.7826 8.30907 15.9255 8.09274 16.1196 7.8986C16.3637 7.65454 16.3637 7.25883 16.1196 7.01477C15.8755 6.77071 15.4798 6.77071 15.2358 7.01477C13.9801 8.27055 14.1102 9.99493 14.3638 11.1274C13.9612 11.0371 13.4846 10.9622 12.9825 10.9601C11.9648 10.9011 10.9712 11.2793 10.2513 11.9992C9.53141 12.7191 9.15336 13.7135 9.21211 14.7303C9.21422 15.2324 9.28914 15.7091 9.37945 16.1117C8.24695 15.8582 6.52258 15.728 5.26688 16.9837C5.02273 17.2277 5.02281 17.6234 5.26688 17.8675C5.51094 18.1116 5.90664 18.1116 6.1507 17.8676ZM9.78273 17.5152C9.88906 17.8573 10.0404 18.3838 10.0891 18.9584L8.33953 17.2089C8.91406 17.2575 9.44055 17.4088 9.78273 17.5152ZM14.7672 12.5307C14.8349 12.7486 14.9198 13.0385 14.9853 13.3682L13.9297 12.3126C14.2595 12.3781 14.5493 12.463 14.7672 12.5307ZM15.0049 15.1556C14.9552 15.3311 14.8852 15.5005 14.7957 15.6598L11.638 12.5021C11.7973 12.4126 11.9666 12.3426 12.1422 12.2928L15.0049 15.1556ZM13.9118 16.5436C13.7525 16.6331 13.5832 16.7031 13.4076 16.7528L10.545 13.8902C10.5948 13.7146 10.6647 13.5453 10.7542 13.386L13.9118 16.5436ZM11.6202 16.7332C11.2905 16.6677 11.0006 16.5828 10.7827 16.5151C10.715 16.2972 10.6302 16.0073 10.5646 15.6776L11.6202 16.7332ZM15.7673 11.5306C15.6609 11.1884 15.5096 10.662 15.4609 10.0873L17.2105 11.837C16.6359 11.7883 16.1095 11.637 15.7673 11.5306ZM27.0109 13.6584L28.7246 7.26305C28.814 6.92961 29.1568 6.73204 29.4901 6.8211C29.8235 6.91047 30.0214 7.25313 29.932 7.58657L28.2184 13.9818C28.1435 14.261 27.891 14.4452 27.615 14.4452C27.5614 14.4452 27.507 14.4383 27.4529 14.4238C27.1195 14.3345 26.9216 13.9918 27.0109 13.6584ZM22.5202 10.6225C22.5202 10.4382 22.6015 10.2633 22.7424 10.1445L25.5346 7.79165C25.7985 7.56915 26.1929 7.6029 26.4153 7.8668C26.6377 8.13079 26.6041 8.52508 26.3402 8.7475L24.1152 10.6225L26.3402 12.4975C26.6041 12.7199 26.6377 13.1142 26.4153 13.3782C26.2916 13.5248 26.1149 13.6005 25.937 13.6005C25.7948 13.6005 25.6519 13.5522 25.5346 13.4534L22.7424 11.1006C22.6015 10.9816 22.5202 10.8068 22.5202 10.6225ZM30.603 12.4974L32.828 10.6224L30.603 8.74743C30.3391 8.52501 30.3053 8.13071 30.5278 7.86672C30.7503 7.60274 31.1446 7.56922 31.4085 7.79157L34.2007 10.1445C34.3416 10.2632 34.423 10.4381 34.423 10.6224C34.423 10.8067 34.3416 10.9816 34.2007 11.1004L31.4085 13.4533C31.2912 13.5521 31.1483 13.6003 31.0061 13.6003C30.8282 13.6003 30.6515 13.5248 30.5278 13.3781C30.3053 13.1141 30.339 12.7198 30.603 12.4974ZM21.5668 16.1294C21.5668 15.7842 21.8466 15.5044 22.1918 15.5044H33.7979C34.143 15.5044 34.4229 15.7842 34.4229 16.1294C34.4229 16.4745 34.143 16.7544 33.7979 16.7544H22.1918C21.8466 16.7544 21.5668 16.4745 21.5668 16.1294ZM21.5668 18.7545C21.5668 18.4093 21.8466 18.1295 22.1918 18.1295H33.7979C34.143 18.1295 34.4229 18.4093 34.4229 18.7545C34.4229 19.0996 34.143 19.3795 33.7979 19.3795H22.1918C21.8466 19.3795 21.5668 19.0996 21.5668 18.7545ZM21.5668 21.3795C21.5668 21.0344 21.8466 20.7545 22.1918 20.7545H33.7979C34.143 20.7545 34.4229 21.0344 34.4229 21.3795C34.4229 21.7247 34.143 22.0045 33.7979 22.0045H22.1918C21.8466 22.0045 21.5668 21.7247 21.5668 21.3795Z" fill="#04285B"/>
</svg>
