<svg width="40" height="40" viewBox="0 0 40 40" fill="none" xmlns="http://www.w3.org/2000/svg">
<g clip-path="url(#clip0_162_39)">
<path d="M13.4805 30.6173C13.4703 30.5673 13.4555 30.5181 13.4359 30.4704C13.4164 30.4235 13.3922 30.3782 13.3641 30.336C13.3359 30.2931 13.3031 30.2532 13.2672 30.2173C13.2313 30.1813 13.1914 30.1485 13.1484 30.1204C13.1063 30.0923 13.0609 30.0681 13.0133 30.0485C12.9664 30.029 12.9172 30.0134 12.8672 30.004C12.7664 29.9837 12.6625 29.9837 12.5625 30.004C12.5125 30.0134 12.4633 30.029 12.4156 30.0485C12.3687 30.0681 12.3234 30.0923 12.2812 30.1204C12.2383 30.1485 12.1984 30.1813 12.1625 30.2173C12.1266 30.2532 12.0938 30.2931 12.0656 30.336C12.0367 30.3782 12.0133 30.4235 11.9938 30.4704C11.9742 30.5181 11.9586 30.5673 11.9492 30.6173C11.9391 30.6673 11.9336 30.7188 11.9336 30.7696C11.9336 30.8204 11.9391 30.872 11.9492 30.922C11.9586 30.972 11.9742 31.0212 11.9938 31.0681C12.0133 31.1157 12.0367 31.161 12.0656 31.2032C12.0938 31.2462 12.1266 31.286 12.1625 31.322C12.1984 31.3579 12.2383 31.3907 12.2812 31.4188C12.3234 31.447 12.3687 31.4713 12.4156 31.4908C12.4633 31.5103 12.5125 31.526 12.5625 31.5353C12.6125 31.5455 12.6641 31.551 12.7148 31.551C12.7656 31.551 12.8172 31.5455 12.8672 31.5353C12.9172 31.526 12.9664 31.5103 13.0133 31.4908C13.0609 31.4713 13.1063 31.447 13.1484 31.4188C13.1914 31.3907 13.2313 31.3579 13.2672 31.322C13.3031 31.286 13.3359 31.2462 13.3641 31.2032C13.3922 31.161 13.4164 31.1157 13.4359 31.0681C13.4555 31.0212 13.4703 30.972 13.4805 30.922C13.4906 30.872 13.4961 30.8204 13.4961 30.7696C13.4961 30.7188 13.4906 30.6673 13.4805 30.6173Z" fill="#04285B"/>
<path d="M35.937 30.858C35.9339 30.8501 35.9308 30.8424 35.9275 30.8348C35.2084 29.1522 33.522 28.5303 31.5263 29.2119L26.0834 30.7171C25.7688 29.7641 24.9838 28.9532 23.874 28.5413C23.8671 28.5388 23.8602 28.5363 23.8533 28.534L17.8704 26.5034C17.3724 25.8597 15.8126 24.2126 12.892 24.2126C10.851 24.2126 9.04547 25.6128 8.0125 27.139H0.78125C0.349766 27.139 0 27.4887 0 27.9202V37.77C0 38.2015 0.349766 38.5512 0.78125 38.5512H5.42633C5.85781 38.5512 6.20758 38.2015 6.20758 37.77V37.0955H8.38594C8.81742 37.0955 9.16719 36.7457 9.16719 36.3142V36.0894C10.437 36.2001 10.8547 36.441 12.0209 37.1135C12.9178 37.6307 14.2734 38.4123 16.7145 39.5099C16.7258 39.515 16.7373 39.5198 16.7488 39.5244C17.2173 39.7087 18.1331 39.9982 19.2623 39.9982C20.0482 39.9982 20.9377 39.8578 21.8506 39.444L33.8812 35.1365C33.9026 35.1288 33.9237 35.1202 33.9443 35.1107C35.0941 34.5817 36.8074 33.0908 35.937 30.858ZM4.64508 36.9887H1.5625V28.7014H4.64508V36.9887ZM7.60469 35.5329H6.20758V28.7014H7.60469V35.5329ZM33.32 33.6776L21.2948 37.9832C21.2843 37.9869 21.27 37.9926 21.2596 37.9968C21.2491 38.0011 21.2385 38.0056 21.2281 38.0104C19.5534 38.7801 17.9614 38.3193 17.3375 38.0767C14.9795 37.0157 13.721 36.29 12.8015 35.7598C11.523 35.0226 10.907 34.6673 9.16719 34.5236V28.2312C9.90773 27.0175 11.3438 25.7751 12.8921 25.7751C15.5473 25.7751 16.6723 27.502 16.7166 27.5717C16.812 27.7269 16.9586 27.8438 17.131 27.9023L23.34 30.0097C24.3316 30.3819 24.8557 31.2311 24.6148 32.078C24.5037 32.4691 24.2468 32.7934 23.8916 32.9913C23.5395 33.1875 23.1325 33.236 22.7445 33.1287L15.7451 30.9105C15.3335 30.7801 14.8946 31.008 14.7643 31.4193C14.6339 31.8306 14.8617 32.2697 15.273 32.4001L22.2847 34.622C22.2921 34.6244 22.2995 34.6266 22.307 34.6287C22.587 34.7083 22.872 34.7477 23.1552 34.7477C23.6738 34.7477 24.1867 34.6156 24.6522 34.3562C25.372 33.9552 25.8924 33.2979 26.1177 32.5053C26.1357 32.442 26.1516 32.3787 26.1655 32.3155L32.0313 30.6905C32.8785 30.4011 33.9906 30.2968 34.4858 31.4372C34.9983 32.776 33.6663 33.5125 33.32 33.6776Z" fill="#04285B"/>
<path d="M28.0516 10.2768C28.0414 10.2268 28.0266 10.1776 28.0063 10.13C27.9867 10.0831 27.9633 10.0378 27.9344 9.99558C27.9062 9.95261 27.8734 9.91277 27.8375 9.87683C27.8016 9.84089 27.7617 9.80808 27.7187 9.77996C27.6766 9.75183 27.6312 9.72761 27.5844 9.70808C27.5367 9.68855 27.4875 9.67292 27.4383 9.66355C27.3375 9.64324 27.2336 9.64324 27.1328 9.66355C27.0828 9.67292 27.0336 9.68855 26.9867 9.70808C26.9391 9.72761 26.8938 9.75183 26.8516 9.77996C26.8086 9.80808 26.7687 9.84089 26.7328 9.87683C26.6969 9.91277 26.6641 9.95261 26.6359 9.99558C26.6078 10.0378 26.5836 10.0831 26.5641 10.13C26.5445 10.1776 26.5289 10.2268 26.5195 10.2768C26.5094 10.3268 26.5039 10.3784 26.5039 10.4292C26.5039 10.48 26.5094 10.5315 26.5195 10.5815C26.5289 10.6315 26.5445 10.6807 26.5641 10.7276C26.5836 10.7753 26.6078 10.8206 26.6359 10.8628C26.6641 10.9057 26.6969 10.9456 26.7328 10.9815C26.7687 11.0175 26.8086 11.0503 26.8516 11.0784C26.8938 11.1065 26.9391 11.1307 26.9867 11.1503C27.0336 11.1698 27.0828 11.1846 27.1328 11.1948C27.1828 11.205 27.2344 11.2104 27.2852 11.2104C27.3359 11.2104 27.3875 11.205 27.4383 11.1948C27.4875 11.1846 27.5367 11.1698 27.5844 11.1503C27.6312 11.1307 27.6766 11.1065 27.7187 11.0784C27.7617 11.0503 27.8016 11.0175 27.8375 10.9815C27.8734 10.9456 27.9062 10.9057 27.9344 10.8628C27.9633 10.8206 27.9867 10.7753 28.0063 10.7276C28.0266 10.6807 28.0414 10.6315 28.0516 10.5815C28.0617 10.5315 28.0664 10.48 28.0664 10.4292C28.0664 10.3784 28.0617 10.3268 28.0516 10.2768Z" fill="#04285B"/>
<path d="M39.2187 2.64775H34.5737C34.1422 2.64775 33.7924 2.99751 33.7924 3.429V4.10353H31.6141C31.1826 4.10353 30.8328 4.4533 30.8328 4.88478V5.10962C29.563 4.99876 29.1453 4.75798 27.9791 4.08548C27.0823 3.5683 25.7267 2.78666 23.2855 1.68908C23.2742 1.68392 23.2628 1.67916 23.2512 1.67462C22.4566 1.36197 20.374 0.746811 18.1497 1.75486L15.0059 2.88048L12.356 0.23064C12.0509 -0.0744385 11.5562 -0.0744385 11.2512 0.23064L2.55132 8.93041C2.26991 9.21189 2.21593 9.69994 2.55132 10.0353L17.4175 24.9015C17.6554 25.1395 18.2124 25.2114 18.5224 24.9015L26.465 16.959C26.6715 16.9768 26.8858 16.9864 27.1079 16.9864C29.149 16.9864 30.9544 15.5863 31.9873 14.0602H39.2187C39.6502 14.0602 40 13.7104 40 13.2789V3.429C40 2.99751 39.6502 2.64775 39.2187 2.64775ZM11.8035 1.88791L13.5841 3.66853C13.0548 3.99587 12.4429 4.17103 11.8035 4.17103C11.1641 4.17103 10.5522 3.99595 10.0229 3.66853L11.8035 1.88791ZM5.98929 11.2635L4.20866 9.48283L5.98929 7.7022C6.31663 8.2315 6.49179 8.84345 6.49179 9.48283C6.49179 10.1222 6.31671 10.7342 5.98929 11.2635ZM17.97 23.2442L16.1897 21.4638C17.2766 20.7931 18.6632 20.7931 19.7502 21.4638L17.97 23.2442ZM20.8759 20.3384C19.1494 19.086 16.7905 19.086 15.0641 20.3384L7.11484 12.389C7.72491 11.5499 8.05429 10.542 8.05429 9.48283C8.05429 8.42353 7.72499 7.41572 7.11484 6.57666L8.89741 4.79416C9.73648 5.40423 10.7443 5.73361 11.8036 5.73361C12.8629 5.73361 13.8707 5.40423 14.7098 4.79416L16.3995 6.48392C16.0349 6.53775 15.6794 6.65791 15.3478 6.84267C14.7878 7.1547 14.3484 7.62197 14.0748 8.18728C13.1936 8.35048 12.3777 8.77712 11.7377 9.41705C10.0014 11.1535 10.0014 13.9787 11.7378 15.7151C12.6059 16.5832 13.7463 17.0174 14.8868 17.0174C16.0272 17.0174 17.1676 16.5833 18.0359 15.7151C18.6007 15.1502 18.9964 14.456 19.1946 13.6995L21.8324 14.5947C21.5355 15.9703 21.8396 17.4175 22.66 18.5542L20.8759 20.3384ZM16.126 12.6577C16.1329 12.6602 16.1398 12.6627 16.1467 12.665L17.7089 13.1952C17.5909 13.7277 17.324 14.2172 16.931 14.6102C15.8038 15.7373 13.9698 15.7374 12.8427 14.6102C11.7155 13.4831 11.7155 11.6492 12.8427 10.522C13.1146 10.2499 13.4355 10.0374 13.7851 9.89322C13.9293 11.0934 14.7934 12.1631 16.126 12.6577ZM23.7857 17.4285C23.4841 16.937 23.3135 16.3762 23.2866 15.8038C23.6608 16.0743 24.1181 16.3394 24.6644 16.5498L23.7857 17.4285ZM30.8327 12.9674C30.0923 14.1813 28.6562 15.4238 27.1079 15.4238C26.8182 15.4238 26.5467 15.4031 26.2929 15.3664C26.2919 15.3663 26.2909 15.3661 26.2898 15.366C24.6026 15.1209 23.6951 14.162 23.3959 13.7823C23.38 13.7588 23.3121 13.67 23.302 13.6552C23.211 13.4926 23.0618 13.3618 22.8715 13.2972L16.6599 11.189C15.6687 10.817 15.1447 9.96814 15.3848 9.12158C15.385 9.12103 15.3851 9.12048 15.3853 9.11994C15.3855 9.11931 15.3857 9.11861 15.3859 9.11798C15.4975 8.72814 15.7539 8.40478 16.1083 8.20736C16.4603 8.01119 16.8673 7.96251 17.2554 8.07009L24.2548 10.2881C24.6662 10.4187 25.1053 10.1907 25.2356 9.77939C25.3659 9.36806 25.1382 8.929 24.7269 8.79861L19.1601 7.03455L19.1115 6.98595C19.111 6.98548 19.1105 6.98494 19.11 6.98447L16.228 4.10244L18.7051 3.21541C18.7135 3.21236 18.7238 3.20853 18.7321 3.20517C18.7342 3.20431 18.7383 3.20275 18.7403 3.20189C18.7509 3.19759 18.7614 3.19306 18.7718 3.1883C20.4465 2.41861 22.0384 2.87931 22.6623 3.12197C25.0204 4.18298 26.279 4.90869 27.1985 5.43892C28.4769 6.17619 29.093 6.53142 30.8327 6.67509V12.9674ZM33.7924 12.4975H32.3953V5.66603H33.7924V12.4975ZM38.4375 12.4975H35.3549V4.21025H38.4375V12.4975Z" fill="#04285B"/>
</g>
<defs>
<clipPath id="clip0_162_39">
<rect width="40" height="40" fill="white"/>
</clipPath>
</defs>
</svg>
