<svg width="40" height="40" viewBox="0 0 40 40" fill="none" xmlns="http://www.w3.org/2000/svg">
<path d="M13.3867 9.85078H17.3328C17.5914 9.85078 17.8015 9.64062 17.8015 9.38203V8.70859C17.8015 7.98125 17.4664 7.30156 16.9234 6.84766C17.307 6.45391 17.5437 5.91641 17.5437 5.32422C17.5437 4.11953 16.564 3.13984 15.3593 3.13984C14.1546 3.13984 13.175 4.11953 13.175 5.32422C13.175 5.91641 13.4117 6.45312 13.7953 6.84687C13.2523 7.30078 12.9171 7.98047 12.9171 8.70781V9.38125C12.9179 9.64063 13.1273 9.85078 13.3867 9.85078ZM16.8632 8.91328H13.8546V8.70859C13.8546 8.15547 14.171 7.64609 14.6562 7.39297C14.8765 7.46797 15.1132 7.50938 15.3585 7.50938C15.6039 7.50938 15.8406 7.46797 16.0609 7.39297C16.546 7.64687 16.8625 8.15547 16.8625 8.70859V8.91328H16.8632ZM15.3593 4.07734C16.0468 4.07734 16.6062 4.63672 16.6062 5.32422C16.6062 6.01172 16.0468 6.57109 15.3593 6.57109C14.6718 6.57109 14.1125 6.01172 14.1125 5.32422C14.1125 4.63672 14.6718 4.07734 15.3593 4.07734ZM30.4007 16.8875C30.1515 16.6539 29.8265 16.5297 29.4828 16.5414C29.1398 16.5523 28.8226 16.6953 28.5882 16.9438L26.7484 18.9016L26.3218 18.5008C26.0726 18.2672 25.7468 18.1438 25.4039 18.1547C25.0609 18.1656 24.7437 18.3086 24.5093 18.557C24.0257 19.0719 24.0507 19.8852 24.5656 20.3688L25.9265 21.6477C26.1734 21.8789 26.4882 21.9937 26.8031 21.9937C27.1445 21.9937 27.4859 21.8586 27.7382 21.5906L30.4554 18.6984C30.689 18.4492 30.8125 18.1234 30.8015 17.7813C30.7929 17.4391 30.65 17.1211 30.4007 16.8875ZM29.7742 18.057L27.0578 20.9484C26.9273 21.0867 26.7085 21.0937 26.5703 20.9641L25.2093 19.6852C25.071 19.5555 25.064 19.3367 25.1945 19.1984C25.257 19.132 25.3421 19.0938 25.4351 19.0906H25.446C25.5343 19.0906 25.6171 19.1234 25.6812 19.1828L26.45 19.9047C26.639 20.082 26.9351 20.0727 27.1125 19.8844L29.2734 17.5844C29.3359 17.518 29.421 17.4797 29.5132 17.4773C29.6039 17.4734 29.6929 17.507 29.7593 17.5695C29.8257 17.632 29.864 17.7172 29.8664 17.8094C29.8695 17.9039 29.8367 17.9914 29.7742 18.057ZM34.8429 11.9828H29.8242V7.88125L32.0796 5.50859C32.4734 5.09453 32.6796 4.54844 32.6624 3.97109C32.6445 3.38594 32.3992 2.84453 31.9726 2.44766C31.3054 1.82734 30.3375 1.71484 29.5539 2.09219C29.2179 1.53516 28.6085 1.17188 27.9273 1.17188H12.0726C11.0265 1.17188 10.175 2.02266 10.175 3.06953V11.9836H5.15698C4.89839 11.9836 4.68823 12.1937 4.68823 12.4523V32.4469C4.68823 32.7055 4.89839 32.9156 5.15698 32.9156H17.4531C17.4796 33.907 17.1164 34.8641 16.3507 35.825H11.3539C11.0953 35.825 10.8851 36.0352 10.8851 36.2937V38.3594C10.8851 38.618 11.0953 38.8281 11.3539 38.8281H28.6453C28.9039 38.8281 29.114 38.618 29.114 38.3594V36.293C29.114 36.0344 28.9039 35.8242 28.6453 35.8242H23.6484C22.8828 34.8633 22.5195 33.9062 22.546 32.9148H34.8429C35.1015 32.9148 35.3117 32.7047 35.3117 32.4461V12.4516C35.3117 12.193 35.1023 11.9828 34.8429 11.9828ZM27.4843 23.7906C24.9906 23.7906 22.9617 21.7617 22.9617 19.268C22.9617 16.7742 24.9906 14.7453 27.4843 14.7453C29.9781 14.7453 32.007 16.7742 32.007 19.268C32.007 21.7617 29.9781 23.7906 27.4843 23.7906ZM28.8867 13.9906C28.439 13.8711 27.9687 13.807 27.4835 13.807C27.1734 13.807 26.8687 13.8344 26.5726 13.8844H22.7789L24.8195 13.0828V13.082C24.882 13.0578 24.9398 13.0195 24.9882 12.9688L28.8867 8.86719V13.9906ZM22.275 11.3508C22.6398 11.8195 23.071 12.2227 23.5726 12.5656L21.4757 13.3891L22.275 11.3508ZM28.9859 3.84531C29.2234 3.94844 29.4484 4.07813 29.6593 4.2375L23.2023 10.9953C23.0398 10.8109 22.889 10.6148 22.7531 10.4039L28.9859 3.84531ZM23.8882 11.6344L30.3304 4.89219C30.4851 5.08281 30.6312 5.29453 30.7687 5.52734L24.5515 12.0687C24.314 11.9375 24.0937 11.7914 23.8882 11.6344ZM31.3335 3.13516C31.5757 3.36016 31.714 3.66797 31.7249 4.00078C31.7343 4.30781 31.6304 4.59766 31.4343 4.82344C30.9445 4.06875 30.3539 3.50391 29.6679 3.13516C30.1398 2.70859 30.8679 2.70078 31.3335 3.13516ZM11.1132 3.06953C11.1132 2.54063 11.5437 2.10938 12.0734 2.10938H27.9273C28.3117 2.10938 28.6507 2.33906 28.8023 2.67812L26.4359 5.16797H19.9039C19.6453 5.16797 19.4351 5.37813 19.4351 5.63672C19.4351 5.89531 19.6453 6.10547 19.9039 6.10547H25.5453L23.9585 7.775H19.9046C19.646 7.775 19.4359 7.98516 19.4359 8.24375C19.4359 8.50234 19.646 8.7125 19.9046 8.7125H23.0679L21.8281 10.0156C21.7851 10.0609 21.7546 10.1125 21.7328 10.168L21.7312 10.1672L21.2843 11.3086H13.3867C13.1281 11.3086 12.9179 11.5188 12.9179 11.7773C12.9179 12.0359 13.1281 12.2461 13.3867 12.2461H20.9171L20.2757 13.8836H13.3867C13.1281 13.8836 12.9179 14.0938 12.9179 14.3523C12.9179 14.6109 13.1281 14.8211 13.3867 14.8211H24.3195C23.7093 15.257 23.1914 15.8141 22.8031 16.4586H13.3867C13.1281 16.4586 12.9179 16.6687 12.9179 16.9273C12.9179 17.1859 13.1281 17.3961 13.3867 17.3961H22.3539C22.1656 17.9102 22.0539 18.4609 22.0296 19.0336H13.3867C13.1281 19.0336 12.9179 19.2438 12.9179 19.5023C12.9179 19.7609 13.1281 19.9711 13.3867 19.9711H22.071C22.146 20.55 22.3109 21.1008 22.5531 21.6086H13.3867C13.1281 21.6086 12.9179 21.8187 12.9179 22.0773C12.9179 22.3359 13.1281 22.5461 13.3867 22.5461H23.1218C24.1195 23.8695 25.7031 24.7266 27.4843 24.7266C27.8812 24.7266 28.2679 24.6828 28.6406 24.6023C28.4648 24.7984 28.2101 24.9227 27.9273 24.9227H12.0726C11.5437 24.9227 11.1125 24.4922 11.1125 23.9625V3.06953H11.1132ZM10.1757 12.9203V23.9633C10.1757 25.0094 11.0265 25.8609 12.0734 25.8609H27.9273C28.8906 25.8609 29.6882 25.1383 29.8085 24.207C31.6601 23.332 32.9445 21.4477 32.9445 19.2672C32.9445 17.0937 31.6671 15.2125 29.8242 14.3352V12.9203H34.3742V28.925H5.62573V12.9203H10.1757ZM28.1765 37.8906H11.8234V36.7617H28.1773V37.8906H28.1765ZM22.4945 35.8242H17.5062C18.1148 34.882 18.4117 33.9078 18.3914 32.9148H21.6093C21.589 33.9078 21.8859 34.882 22.4945 35.8242ZM5.62573 31.9773V29.8633H34.375V31.9773H5.62573Z" fill="#04285B"/>
</svg>
