<svg width="40" height="40" viewBox="0 0 40 40" fill="none" xmlns="http://www.w3.org/2000/svg">
<g clip-path="url(#clip0_41_66)">
<path d="M35.8333 36.6666H4.16667C1.87 36.6666 0 34.7966 0 32.5V10.8333C0 8.53663 1.87 6.66663 4.16667 6.66663H14.1667C14.6267 6.66663 15 7.03996 15 7.49996C15 7.95996 14.6267 8.33329 14.1667 8.33329H4.16667C2.78833 8.33329 1.66667 9.45496 1.66667 10.8333V32.5C1.66667 33.8783 2.78833 35 4.16667 35H35.8333C37.2117 35 38.3333 33.8783 38.3333 32.5V10.8333C38.3333 9.45496 37.2117 8.33329 35.8333 8.33329H25.8333C25.3733 8.33329 25 7.95996 25 7.49996C25 7.03996 25.3733 6.66663 25.8333 6.66663H35.8333C38.13 6.66663 40 8.53663 40 10.8333V32.5C40 34.7966 38.13 36.6666 35.8333 36.6666Z" fill="#04285B"/>
<path d="M12.4999 23.3333C10.2033 23.3333 8.33325 21.4633 8.33325 19.1667C8.33325 16.87 10.2033 15 12.4999 15C14.7966 15 16.6666 16.87 16.6666 19.1667C16.6666 21.4633 14.7966 23.3333 12.4999 23.3333ZM12.4999 16.6667C11.1216 16.6667 9.99992 17.7883 9.99992 19.1667C9.99992 20.545 11.1216 21.6667 12.4999 21.6667C13.8783 21.6667 14.9999 20.545 14.9999 19.1667C14.9999 17.7883 13.8783 16.6667 12.4999 16.6667Z" fill="#04285B"/>
<path d="M19.1667 31.6667C18.7067 31.6667 18.3333 31.2933 18.3333 30.8333V29.1667C18.3333 27.7883 17.2117 26.6667 15.8333 26.6667H9.16667C7.78833 26.6667 6.66667 27.7883 6.66667 29.1667V30.8333C6.66667 31.2933 6.29333 31.6667 5.83333 31.6667C5.37333 31.6667 5 31.2933 5 30.8333V29.1667C5 26.87 6.87 25 9.16667 25H15.8333C18.13 25 20 26.87 20 29.1667V30.8333C20 31.2933 19.6267 31.6667 19.1667 31.6667Z" fill="#04285B"/>
<path d="M34.1666 18.3333H24.1666C23.7066 18.3333 23.3333 17.96 23.3333 17.5C23.3333 17.04 23.7066 16.6666 24.1666 16.6666H34.1666C34.6266 16.6666 34.9999 17.04 34.9999 17.5C34.9999 17.96 34.6266 18.3333 34.1666 18.3333Z" fill="#04285B"/>
<path d="M34.1666 25H24.1666C23.7066 25 23.3333 24.6267 23.3333 24.1667C23.3333 23.7067 23.7066 23.3334 24.1666 23.3334H34.1666C34.6266 23.3334 34.9999 23.7067 34.9999 24.1667C34.9999 24.6267 34.6266 25 34.1666 25Z" fill="#04285B"/>
<path d="M34.1666 31.6667H24.1666C23.7066 31.6667 23.3333 31.2933 23.3333 30.8333C23.3333 30.3733 23.7066 30 24.1666 30H34.1666C34.6266 30 34.9999 30.3733 34.9999 30.8333C34.9999 31.2933 34.6266 31.6667 34.1666 31.6667Z" fill="#04285B"/>
<path d="M24.1666 11.6667H15.8333C14.4549 11.6667 13.3333 10.545 13.3333 9.16671V5.83337C13.3333 4.45504 14.4549 3.33337 15.8333 3.33337H24.1666C25.5449 3.33337 26.6666 4.45504 26.6666 5.83337V9.16671C26.6666 10.545 25.5449 11.6667 24.1666 11.6667ZM15.8333 5.00004C15.3733 5.00004 14.9999 5.37337 14.9999 5.83337V9.16671C14.9999 9.62671 15.3733 10 15.8333 10H24.1666C24.6266 10 24.9999 9.62671 24.9999 9.16671V5.83337C24.9999 5.37337 24.6266 5.00004 24.1666 5.00004H15.8333Z" fill="#04285B"/>
</g>
<defs>
<clipPath id="clip0_41_66">
<rect width="40" height="40" fill="white"/>
</clipPath>
</defs>
</svg>
