<svg width="21" height="21" viewBox="0 0 21 21" fill="none" xmlns="http://www.w3.org/2000/svg">
<path d="M20.6152 10.2362C20.6152 15.347 16.8279 19.5722 11.9078 20.2579C11.4478 20.3217 10.9771 20.355 10.4994 20.355C9.94788 20.355 9.40633 20.311 8.87896 20.226C4.06241 19.4503 0.383545 15.2726 0.383545 10.2362C0.383545 4.6475 4.91301 0.116699 10.5001 0.116699C16.0871 0.116699 20.6166 4.6475 20.6166 10.2362H20.6152Z" fill="white"/>
<path d="M4.48634 4.58008L9.1519 10.8197L4.45728 15.8929H5.51415L9.6247 11.4514L12.9456 15.8929H16.5415L11.6137 9.30232L15.9837 4.58008H14.9268L11.1416 8.67056L8.08298 4.58008H4.48704H4.48634ZM6.04011 5.35861H7.6917L14.9863 15.1144H13.3348L6.04011 5.35861Z" fill="#01C8BE"/>
</svg>
