<svg width="21" height="21" viewBox="0 0 21 21" fill="none" xmlns="http://www.w3.org/2000/svg">
<path d="M10.7149 0.117188H10.6688C5.09453 0.117188 0.575684 4.63737 0.575684 10.2133V10.2594C0.575684 15.8353 5.09453 20.3555 10.6688 20.3555H10.7149C16.2892 20.3555 20.808 15.8353 20.808 10.2594V10.2133C20.808 4.63737 16.2892 0.117188 10.7149 0.117188Z" fill="white"/>
<path d="M12.6636 13.1962C10.0742 13.1962 7.96751 11.0883 7.9668 8.49811C7.96751 7.84153 8.50197 7.30762 9.15694 7.30762C9.22428 7.30762 9.2909 7.31329 9.3547 7.32463C9.49505 7.34803 9.62831 7.39554 9.75094 7.46715C9.76866 7.47779 9.78071 7.49481 9.78355 7.51466L10.0572 9.23977C10.0607 9.25962 10.0543 9.28019 10.0409 9.29508C9.88987 9.46241 9.69707 9.58295 9.48229 9.64322L9.3788 9.67229L9.41778 9.77226C9.77079 10.6713 10.4896 11.3896 11.3891 11.7441L11.489 11.7838L11.5181 11.6803C11.5783 11.4655 11.6988 11.2726 11.8661 11.1216C11.8782 11.1102 11.8945 11.1046 11.9108 11.1046C11.9143 11.1046 11.9179 11.1046 11.9221 11.1053L13.6467 11.379C13.6673 11.3825 13.6843 11.3938 13.6949 11.4116C13.7658 11.5342 13.8133 11.6683 13.8374 11.8086C13.8487 11.871 13.8537 11.937 13.8537 12.0058C13.8537 12.6616 13.3199 13.1955 12.6636 13.1962Z" fill="#01C8BE"/>
<path d="M17.2554 9.66793C17.1158 8.08959 16.3928 6.62541 15.2197 5.54553C14.0394 4.45928 12.5083 3.86084 10.9071 3.86084C7.39267 3.86084 4.53323 6.72113 4.53323 10.2366C4.53323 11.4164 4.85858 12.5658 5.47456 13.567L4.10083 16.6088L8.49917 16.1401C9.264 16.4535 10.0735 16.6123 10.9064 16.6123C11.1254 16.6123 11.3501 16.601 11.5755 16.5776C11.774 16.5563 11.9746 16.5251 12.1717 16.4854C15.1148 15.8905 17.2632 13.2777 17.2802 10.2706V10.2366C17.2802 10.0451 17.2717 9.85369 17.2547 9.66863L17.2554 9.66793ZM8.66858 14.805L6.23515 15.0645L6.9617 13.4542L6.81639 13.2592C6.80576 13.2451 6.79513 13.2309 6.78308 13.2146C6.15221 12.3432 5.81905 11.3136 5.81905 10.2373C5.81905 7.43089 8.10151 5.14776 10.9071 5.14776C13.5355 5.14776 15.7633 7.19903 15.9781 9.81754C15.9895 9.95793 15.9958 10.099 15.9958 10.238C15.9958 10.2777 15.9951 10.3167 15.9944 10.3585C15.9405 12.7062 14.301 14.7 12.0072 15.2077C11.8321 15.2467 11.6528 15.2765 11.4742 15.2956C11.2884 15.3169 11.0978 15.3275 10.9085 15.3275C10.2344 15.3275 9.57944 15.1971 8.96062 14.939C8.89186 14.9113 8.82452 14.8815 8.76143 14.8511L8.66929 14.8064L8.66858 14.805Z" fill="#01C8BE"/>
</svg>
